<svg width="168" height="180" viewBox="0 0 168 180" fill="none" xmlns="http://www.w3.org/2000/svg">
<circle cx="88.9829" cy="100.499" r="78.5991" fill="#E0EBFC"/>
<path d="M158.167 68.83C155.081 79.9882 144.966 104.855 126.775 109.478C108.583 114.1 99.9436 109.212 98.1996 106.887" stroke="#6A13F4" stroke-width="2"/>
<mask id="path-3-inside-1_8132_61980" fill="white">
<path fill-rule="evenodd" clip-rule="evenodd" d="M68.6855 44.5663L51.4004 63.1439V156.432H126.565V63.1439L109.749 44.5663H68.6855ZM83.7756 75.785C88.1179 75.785 91.638 72.2649 91.638 67.9226C91.638 63.5803 88.1179 60.0602 83.7756 60.0602C79.4333 60.0602 75.9132 63.5803 75.9132 67.9226C75.9132 72.2649 79.4333 75.785 83.7756 75.785Z"/>
</mask>
<path fill-rule="evenodd" clip-rule="evenodd" d="M68.6855 44.5663L51.4004 63.1439V156.432H126.565V63.1439L109.749 44.5663H68.6855ZM83.7756 75.785C88.1179 75.785 91.638 72.2649 91.638 67.9226C91.638 63.5803 88.1179 60.0602 83.7756 60.0602C79.4333 60.0602 75.9132 63.5803 75.9132 67.9226C75.9132 72.2649 79.4333 75.785 83.7756 75.785Z" fill="white"/>
<path d="M51.4004 63.1439L50.278 62.0996L49.8674 62.541V63.1439H51.4004ZM68.6855 44.5663V43.0333H68.0179L67.5632 43.522L68.6855 44.5663ZM51.4004 156.432H49.8674V157.965H51.4004V156.432ZM126.565 156.432V157.965H128.098V156.432H126.565ZM126.565 63.1439H128.098V62.5531L127.701 62.1151L126.565 63.1439ZM109.749 44.5663L110.886 43.5375L110.429 43.0333H109.749V44.5663ZM52.5227 64.1881L69.8078 45.6105L67.5632 43.522L50.278 62.0996L52.5227 64.1881ZM52.9334 156.432V63.1439H49.8674V156.432H52.9334ZM126.565 154.899H51.4004V157.965H126.565V154.899ZM125.032 63.1439V156.432H128.098V63.1439H125.032ZM108.612 45.5951L125.428 64.1726L127.701 62.1151L110.886 43.5375L108.612 45.5951ZM68.6855 46.0993H109.749V43.0333H68.6855V46.0993ZM90.105 67.9226C90.105 71.4182 87.2712 74.252 83.7756 74.252V77.318C88.9646 77.318 93.171 73.1116 93.171 67.9226H90.105ZM83.7756 61.5932C87.2712 61.5932 90.105 64.427 90.105 67.9226H93.171C93.171 62.7336 88.9646 58.5272 83.7756 58.5272V61.5932ZM77.4462 67.9226C77.4462 64.427 80.28 61.5932 83.7756 61.5932V58.5272C78.5866 58.5272 74.3801 62.7336 74.3801 67.9226H77.4462ZM83.7756 74.252C80.28 74.252 77.4462 71.4182 77.4462 67.9226H74.3801C74.3801 73.1116 78.5866 77.318 83.7756 77.318V74.252Z" fill="#6A13F4" mask="url(#path-3-inside-1_8132_61980)"/>
<path d="M78.5127 100.499C78.5127 101.514 78.3128 102.519 77.9243 103.457C77.5359 104.395 76.9665 105.247 76.2488 105.965C75.531 106.682 74.679 107.252 73.7412 107.64C72.8034 108.029 71.7983 108.229 70.7832 108.229C69.7682 108.229 68.763 108.029 67.8253 107.64C66.8875 107.252 66.0354 106.682 65.3176 105.965C64.5999 105.247 64.0305 104.395 63.6421 103.457C63.2536 102.519 63.0537 101.514 63.0537 100.499H64.7578C64.7578 101.29 64.9136 102.074 65.2164 102.805C65.5192 103.536 65.9631 104.2 66.5226 104.76C67.0821 105.319 67.7463 105.763 68.4774 106.066C69.2084 106.369 69.9919 106.524 70.7832 106.524C71.5745 106.524 72.358 106.369 73.0891 106.066C73.8201 105.763 74.4843 105.319 75.0439 104.76C75.6034 104.2 76.0472 103.536 76.35 102.805C76.6528 102.074 76.8087 101.29 76.8087 100.499H78.5127Z" fill="#E3D2FF"/>
<path d="M91.5059 120.968C91.5059 119.953 91.306 118.948 90.9175 118.01C90.5291 117.072 89.9597 116.22 89.242 115.502C88.5242 114.785 87.6721 114.215 86.7343 113.827C85.7965 113.438 84.7914 113.238 83.7764 113.238C82.7613 113.238 81.7562 113.438 80.8184 113.827C79.8806 114.215 79.0285 114.785 78.3108 115.502C77.593 116.22 77.0237 117.072 76.6352 118.01C76.2468 118.948 76.0469 119.953 76.0469 120.968H77.7509C77.7509 120.177 77.9068 119.393 78.2096 118.662C78.5124 117.931 78.9562 117.267 79.5157 116.707C80.0753 116.148 80.7395 115.704 81.4705 115.401C82.2016 115.098 82.9851 114.942 83.7764 114.942C84.5677 114.942 85.3512 115.098 86.0822 115.401C86.8133 115.704 87.4775 116.148 88.037 116.707C88.5965 117.267 89.0404 117.931 89.3432 118.662C89.646 119.393 89.8018 120.177 89.8018 120.968H91.5059Z" fill="#E3D2FF"/>
<path d="M104.498 100.499C104.498 101.514 104.298 102.519 103.91 103.457C103.521 104.395 102.952 105.247 102.234 105.965C101.516 106.682 100.664 107.252 99.7265 107.64C98.7887 108.029 97.7836 108.229 96.7686 108.229C95.7535 108.229 94.7484 108.029 93.8106 107.64C92.8728 107.252 92.0207 106.682 91.303 105.965C90.5852 105.247 90.0159 104.395 89.6274 103.457C89.239 102.519 89.0391 101.514 89.0391 100.499H90.7431C90.7431 101.29 90.899 102.074 91.2018 102.805C91.5046 103.536 91.9484 104.2 92.5079 104.76C93.0674 105.319 93.7317 105.763 94.4627 106.066C95.1938 106.369 95.9773 106.524 96.7686 106.524C97.5598 106.524 98.3434 106.369 99.0744 106.066C99.8055 105.763 100.47 105.319 101.029 104.76C101.589 104.2 102.033 103.536 102.335 102.805C102.638 102.074 102.794 101.29 102.794 100.499H104.498Z" fill="#E3D2FF"/>
<rect x="52.3546" y="137.836" width="73.2576" height="18.3326" fill="#6A13F4" stroke="#6A13F4" stroke-width="1.53302"/>
<circle cx="81.8717" cy="22.638" r="4.26821" fill="#6A13F4" fill-opacity="0.1"/>
<circle cx="136.429" cy="24.5542" r="1.91628" fill="#6A13F4" fill-opacity="0.1"/>
<circle cx="126.267" cy="54.7038" r="1.91628" fill="#6A13F4" fill-opacity="0.1"/>
<circle cx="154.078" cy="75.1282" r="2.49116" fill="#6A13F4" fill-opacity="0.1"/>
<circle cx="37.413" cy="15.8786" r="2.49116" fill="#6A13F4" fill-opacity="0.1"/>
<path d="M113.211 4.77637L115.504 2.48343L117.162 4.14121L114.869 6.43414L117.46 9.0256L115.714 10.7723L113.122 8.18084L110.823 10.4801L109.165 8.82235L111.464 6.52306L108.981 4.03958L110.728 2.29288L113.211 4.77637Z" fill="#6A13F4" fill-opacity="0.1"/>
<path d="M53.1705 27.7189L55.0164 25.8731L56.3509 27.2076L54.505 29.0535L56.5913 31.1397L55.1851 32.5459L53.0989 30.4597L51.2479 32.3106L49.9133 30.9761L51.7643 29.1251L49.7651 27.1258L51.1712 25.7197L53.1705 27.7189Z" fill="#6A13F4" fill-opacity="0.1"/>
<path d="M28.4709 59.0703L29.6472 57.894L30.4977 58.7445L29.3214 59.9208L30.6508 61.2503L29.7547 62.1464L28.4253 60.8169L27.2457 61.9965L26.3952 61.146L27.5748 59.9664L26.3007 58.6924L27.1968 57.7963L28.4709 59.0703Z" fill="#E6E6E6"/>
<path d="M154.175 47.4982L155.351 46.3219L156.202 47.1723L155.025 48.3487L156.355 49.6782L155.459 50.5743L154.129 49.2448L152.95 50.4244L152.099 49.5739L153.279 48.3943L152.005 47.1202L152.901 46.2241L154.175 47.4982Z" fill="#6A13F4" fill-opacity="0.1"/>
<path d="M1.41797 131.025C5.92643 114.722 20.7063 78.3876 47.2866 71.6332C73.8669 64.8788 86.4906 72.0214 89.0388 75.418" stroke="#6A13F4" stroke-width="2"/>
</svg>
