<svg width="173" height="49" viewBox="0 0 173 49" fill="none" xmlns="http://www.w3.org/2000/svg">
<path d="M18.2208 37.1573C15.3728 37.1573 13.8698 36.0464 15.5706 32.932L23.9959 18.312C25.4001 15.872 27.0812 15.1182 28.8809 17.9748L37.3655 32.7534L37.3457 32.7336C39.2246 35.9869 37.7215 37.1375 34.8142 37.1375H18.2208V37.1573ZM53.5831 38.0301C53.5831 37.7524 53.5633 37.5144 53.5435 37.3755C53.5238 37.2565 53.4249 37.1573 53.3062 37.1573H42.923C41.2221 37.1573 40.3124 36.5027 41.321 34.6578L42.3494 32.8923C45.0392 28.2107 45.0392 22.458 42.3692 17.7764L35.2691 5.41787C32.2827 0.200703 25.5781 -1.58464 20.4755 1.54963C20.2184 1.70833 20.0404 1.82735 19.9019 1.92653C19.803 2.00588 19.7832 2.12491 19.8426 2.24393L25.0441 11.2897C25.8945 12.7973 25.7363 13.9082 23.5014 13.9082H21.6226C16.2431 13.9082 11.2591 16.7846 8.56937 21.4661L1.44945 33.8246C-1.55674 39.022 0.262795 45.7468 5.52363 48.6033C5.78073 48.7422 5.99829 48.8414 6.13673 48.9009C6.2554 48.9604 6.37406 48.9009 6.43339 48.8017L11.6151 39.8155C12.4853 38.288 13.5335 37.8516 14.6609 39.8155L15.5904 41.4421C18.2802 46.1237 23.2641 49.0001 28.6436 49.0001H42.923C48.9354 49.0001 53.7611 44.0606 53.5831 38.0301Z" fill="#7500FF"/>
<path d="M173 34.3007V43.5845C173 43.644 172.96 43.6837 172.901 43.6837C166.335 43.644 160.718 39.5973 158.305 33.8842C157.989 33.1304 157.732 32.3369 157.534 31.5235C157.237 30.2936 157.059 29.0042 157.059 27.695V26.0882C157.059 26.0287 157.02 25.989 156.96 25.989H152.669C152.609 25.989 152.57 25.9493 152.57 25.8898V16.606C152.57 16.5465 152.609 16.5068 152.669 16.5068H156.96C157.02 16.5068 157.059 16.4672 157.059 16.4076V5.35836C157.059 5.29885 157.099 5.25917 157.158 5.25917H166.414C166.473 5.25917 166.513 5.29885 166.513 5.35836V16.4076C166.513 16.4672 166.553 16.5068 166.612 16.5068H170.904C170.963 16.5068 171.002 16.5465 171.002 16.606V25.8898C171.002 25.9493 170.963 25.989 170.904 25.989H166.612C166.553 25.989 166.513 26.0287 166.513 26.0882V27.695C166.513 31.2458 169.361 34.142 172.881 34.1817C172.96 34.2016 173 34.2412 173 34.3007Z" fill="#7500FF"/>
<path d="M156.604 34.2809V43.6837C147.823 43.6837 140.664 36.5225 140.664 27.695V16.606C140.664 16.5465 140.703 16.5068 140.763 16.5068H150.018C150.078 16.5068 150.117 16.5465 150.117 16.606V27.695C150.117 31.2062 153.005 34.0825 156.486 34.1817C156.565 34.1817 156.604 34.2412 156.604 34.2809Z" fill="#7500FF"/>
<path d="M138.33 38.9823V43.5845C138.33 43.644 138.29 43.6837 138.231 43.6837H128.975C128.916 43.6837 128.876 43.644 128.876 43.5845V38.9823C128.876 35.8679 126.661 33.2494 123.734 32.6344C123.695 32.6344 123.675 32.6543 123.675 32.6939V43.6044C123.675 43.6639 123.635 43.7035 123.576 43.7035H114.32C114.261 43.7035 114.221 43.6639 114.221 43.6044V5.33852C114.221 5.27901 114.261 5.23934 114.32 5.23934H123.556C123.615 5.23934 123.655 5.27901 123.655 5.33852V22.7952C123.655 22.8349 123.695 22.8547 123.714 22.8547C126.622 22.2596 128.837 19.6808 128.876 16.606C128.876 16.5465 128.916 16.5068 128.975 16.5068H138.231C138.29 16.5068 138.33 16.5465 138.33 16.606C138.31 20.9503 136.53 24.8781 133.702 27.7545C136.57 30.6507 138.33 34.5983 138.33 38.9823Z" fill="#7500FF"/>
<path d="M111.531 16.606V43.5845C111.531 43.644 111.492 43.6837 111.432 43.6837H102.177C102.117 43.6837 102.078 43.644 102.078 43.5845V16.606C102.078 16.5465 102.117 16.5068 102.177 16.5068H111.432C111.472 16.5068 111.531 16.5465 111.531 16.606Z" fill="#7500FF"/>
<path d="M99.3879 5.33852V43.5845C99.3879 43.644 99.3484 43.6837 99.289 43.6837H90.0331C89.9738 43.6837 89.9342 43.644 89.9342 43.5845V5.33852C89.9342 5.27901 89.9738 5.23934 90.0331 5.23934H99.289C99.3484 5.23934 99.3879 5.29885 99.3879 5.33852Z" fill="#7500FF"/>
<path d="M87.2247 38.9823V43.5845C87.2247 43.644 87.1852 43.6837 87.1258 43.6837H77.8699C77.8106 43.6837 77.771 43.644 77.771 43.5845V38.9823C77.771 35.8679 75.556 33.2494 72.6289 32.6344C72.5893 32.6344 72.5696 32.6543 72.5696 32.6939V43.6044C72.5696 43.6639 72.53 43.7035 72.4707 43.7035H63.2148C63.1554 43.7035 63.1159 43.6639 63.1159 43.6044V5.33852C63.1159 5.27901 63.1554 5.23934 63.2148 5.23934H72.4707C72.53 5.23934 72.5696 5.27901 72.5696 5.33852V22.7952C72.5696 22.8349 72.5893 22.8547 72.6289 22.8547C75.5362 22.2596 77.7513 19.6808 77.7908 16.606C77.7908 16.5465 77.8304 16.5068 77.8897 16.5068H87.1456C87.2049 16.5068 87.2445 16.5465 87.2445 16.606C87.2247 20.9503 85.4447 24.8781 82.6166 27.7545C85.4645 30.6507 87.2247 34.5983 87.2247 38.9823Z" fill="#7500FF"/>
<path d="M145.391 5.25917C147.902 5.25917 149.939 7.3024 149.939 9.82172C149.939 12.341 147.902 14.3843 145.391 14.3843C142.879 14.3843 140.842 12.341 140.842 9.82172C140.842 7.3024 142.879 5.25917 145.391 5.25917Z" fill="#7500FF"/>
<path d="M106.725 5.25917C109.237 5.25917 111.274 7.3024 111.274 9.82172C111.274 12.341 109.237 14.3843 106.725 14.3843C104.214 14.3843 102.177 12.341 102.177 9.82172C102.177 7.3024 104.214 5.25917 106.725 5.25917Z" fill="#7500FF"/>
</svg>
