<svg width="200" height="32" viewBox="0 0 200 32" fill="none" xmlns="http://www.w3.org/2000/svg">
    <g id="g92">
        <g id="g98">
            <g id="g100">
                <g id="Clip path group">
                    <mask id="mask0_1125_4065" style="mask-type:luminance"
                        maskUnits="userSpaceOnUse" x="-2" y="-2" width="204" height="37">
                        <g id="clipPath106">
                            <path id="path104"
                                d="M-1.68478 34.6351L201.858 34.6352L201.857 -1.65454L-1.68486 -1.65461L-1.68478 34.6351Z"
                                fill="white" />
                        </g>
                    </mask>
                    <g mask="url(#mask0_1125_4065)">
                        <g id="g102">
                            <g id="g108">
                                <path id="path114"
                                    d="M27.6669 5.22415L49.4378 5.22415L49.4378 18.2858L40.3045 18.2858L49.4378 26.6449L41.679 26.6449L32.722 18.2858L32.722 26.6449L27.667 26.6449L27.6669 13.3665L43.6292 13.3665L43.6292 10.1881L27.6669 10.1881L27.6669 5.22415Z"
                                    fill="black" />
                                <path id="path116"
                                    d="M51.6985 26.6449L57.0192 26.6449L57.0192 5.18074L51.6985 5.18074L51.6985 26.6449Z"
                                    fill="black" />
                                <path id="path118"
                                    d="M9.08943 21.4639L9.0894 5.22415L4.92151 5.22415C4.16778 5.22415 3.59129 5.79057 3.5913 6.48629C3.5913 10.3189 3.54702 21.5946 3.54702 25.3387C3.54703 26.0354 4.12352 26.6449 4.83294 26.6449C7.71492 26.6449 16.0061 26.6449 17.2027 26.6449L17.2027 21.464L9.08943 21.4639Z"
                                    fill="black" />
                                <path id="path120"
                                    d="M19.9518 32.0001C20.4402 32.0001 24.1643 32.0001 25.4062 32.0001C25.4062 32.0001 25.4062 21.4204 25.4062 21.2463C23.6323 21.2463 21.771 21.2463 19.9518 21.2463C19.9518 24.8164 19.9518 28.3864 19.9518 32.0001Z"
                                    fill="black" />
                                <path id="path122"
                                    d="M11.7497 5.22415C11.7497 5.31189 11.7497 10.579 11.7497 10.579C14.1884 10.579 17.2916 10.579 19.9517 10.579C19.9518 14.2808 19.9518 18.5906 19.9518 18.5906C21.1937 18.5906 24.9178 18.5906 25.4062 18.5906L25.4062 6.53094C25.4062 5.83368 24.8289 5.26725 24.1206 5.22416C21.4604 5.22416 15.1635 5.22415 11.7497 5.22415Z"
                                    fill="black" />
                                <path id="path124"
                                    d="M11.7497 13.1911C11.7497 14.9765 11.7497 16.762 11.7497 18.6337C12.1931 18.6337 12.6808 18.6337 13.1242 18.6337C14.3663 18.6337 15.9171 18.6337 17.159 18.6337C17.159 18.6337 17.159 13.2788 17.159 13.1911C15.3851 13.1911 13.5676 13.1911 11.7497 13.1911ZM15.5629 16.979C15.0309 16.979 14.41 16.979 13.9216 16.979C13.745 16.979 13.5676 16.979 13.3459 16.979C13.3459 16.2387 13.3459 15.543 13.3459 14.8026C14.0995 14.8026 14.8094 14.8026 15.5629 14.8026C15.5629 14.8457 15.5629 16.979 15.5629 16.979Z"
                                    fill="black" />
                                <path id="path126"
                                    d="M83.1348 21.2464L83.1348 29.2573C83.1348 29.9538 82.5138 30.5199 81.8055 30.5199L73.6473 30.5199L73.6473 31.8259L83.1348 31.8259L83.18 31.8259C83.8447 31.8259 84.4204 31.26 84.4204 30.5633L84.4204 30.5199L84.4204 21.2464L83.1348 21.2464Z"
                                    fill="black" />
                                <path id="path128"
                                    d="M1.33019 10.536L1.33017 2.52446C1.33017 1.82874 1.86219 1.30541 2.57161 1.30542L10.73 1.30542C10.7743 1.30542 10.7743 1.26232 10.7743 1.26232L10.7743 0.0432711C10.7743 0.0432711 10.7743 0.000173616 10.73 0.000173601L1.33017 0.000170231C0.576438 0.000169961 -5.06494e-05 0.566598 -4.91639e-05 1.30541L-3.06042e-05 10.536C-3.05176e-05 10.5791 0.0442788 10.5791 0.0442788 10.5791L1.28588 10.5791C1.28588 10.5791 1.33019 10.5791 1.33019 10.536Z"
                                    fill="black" />
                                <path id="path130"
                                    d="M80.8288 10.536L80.8288 5.22423L59.3247 5.22423L59.3247 13.1911L59.3247 18.5476L73.6473 18.5476L73.6473 21.2028L59.3247 21.2028L59.3247 26.5579L80.8288 26.5579L80.8288 13.2358L66.5078 13.2358L66.5078 10.536L80.8288 10.536Z"
                                    fill="black" />
                                <path id="path132"
                                    d="M96.348 12.931L91.6035 12.931C91.0278 12.931 90.4958 12.8433 89.9637 12.6263C89.4754 12.4523 88.9886 12.1476 88.6329 11.7982C88.2335 11.4072 87.9246 10.9716 87.7014 10.4929C87.4799 9.96961 87.3473 9.44782 87.3473 8.83829C87.3473 8.22877 87.4799 7.70544 87.7014 7.18365C87.9245 6.70496 88.1898 6.22627 88.5892 5.87687C88.9886 5.48591 89.4317 5.22425 89.9185 5.00722C90.4505 4.78866 90.9825 4.70246 91.6035 4.70246C92.1807 4.70246 92.7128 4.78866 93.2448 5.00722C93.7316 5.22425 94.1762 5.48592 94.5741 5.83378C94.9298 6.22627 95.2403 6.61723 95.4618 7.14056C95.6834 7.61925 95.7723 8.14104 95.7723 8.70747C95.7723 9.05533 95.7271 9.40472 95.6834 9.70948C95.5944 10.0573 95.4618 10.3621 95.284 10.6669C95.1514 10.9285 94.9298 11.1887 94.7083 11.4072C94.4867 11.6673 94.2199 11.8428 93.9094 11.9721L96.348 11.9721L96.348 12.931ZM91.5598 11.929C92.0029 11.929 92.446 11.8428 92.8017 11.6673C93.1559 11.4934 93.51 11.2764 93.7768 11.0147C94.0421 10.71 94.2199 10.4052 94.3978 10.0142C94.5304 9.62175 94.6193 9.18616 94.6193 8.75056C94.6193 8.35961 94.5304 7.92401 94.3978 7.57615C94.2199 7.18365 93.9984 6.87889 93.7316 6.61723C93.4663 6.31247 93.1559 6.09544 92.8017 5.96461C92.4023 5.79068 92.0029 5.70294 91.5598 5.70294C91.1167 5.70294 90.7173 5.79068 90.3631 5.9646C90.0074 6.09544 89.6969 6.31247 89.4317 6.61723C89.1649 6.87889 88.9434 7.18365 88.7655 7.57615C88.6329 7.92401 88.5439 8.31497 88.544 8.75056C88.544 9.18615 88.6329 9.57865 88.7655 9.96961C88.8997 10.3621 89.1212 10.71 89.3865 10.9716C89.6533 11.2764 89.9637 11.4934 90.3631 11.6673C90.7173 11.8428 91.1167 11.929 91.5598 11.929Z"
                                    fill="black" />
                                <path id="path134"
                                    d="M97.501 4.87639L100.383 4.87639C100.915 4.87639 101.358 4.96259 101.668 5.09342C102.024 5.26735 102.289 5.44282 102.511 5.65984C102.689 5.87687 102.821 6.09544 102.91 6.3571C102.999 6.61723 102.999 6.87889 102.999 7.14056C102.999 7.40068 102.955 7.66235 102.866 7.88091C102.778 8.14104 102.645 8.3596 102.467 8.53353C102.289 8.75056 102.113 8.88139 101.846 9.01223C101.581 9.14306 101.314 9.22925 101.004 9.27389L103.353 12.931L101.935 12.931L99.8506 9.40472L98.6087 9.40472L98.6087 12.931L97.501 12.931L97.501 4.87639ZM98.6087 8.4458L100.072 8.4458C100.294 8.4458 100.515 8.4458 100.738 8.4027C100.915 8.3596 101.136 8.31497 101.27 8.18567C101.447 8.09794 101.581 7.96711 101.668 7.79318C101.802 7.66235 101.846 7.40068 101.846 7.14056C101.846 6.87889 101.802 6.66186 101.668 6.4864C101.581 6.31247 101.447 6.18163 101.27 6.09544C101.136 6.0077 100.915 5.92151 100.738 5.92151C100.515 5.87687 100.294 5.83377 100.072 5.83377L98.6087 5.83377L98.6087 8.4458Z"
                                    fill="black" />
                                <path id="path136"
                                    d="M113.507 6.61712C113.285 6.357 112.975 6.09533 112.621 5.9645C112.265 5.79057 111.911 5.70283 111.511 5.70283C111.068 5.70283 110.625 5.79057 110.271 5.9645C109.915 6.13843 109.561 6.35699 109.294 6.66176C109.029 6.96652 108.851 7.31438 108.675 7.70533C108.541 8.09783 108.452 8.53343 108.452 8.96902C108.452 9.40461 108.541 9.79557 108.675 10.1881C108.808 10.579 109.029 10.9284 109.294 11.1885C109.561 11.4933 109.872 11.7119 110.226 11.8858C110.625 12.0597 111.068 12.1475 111.511 12.1475C112 12.1475 112.399 12.0166 112.753 11.8427C113.108 11.6672 113.418 11.4071 113.685 11.0577L114.616 11.755C114.527 11.8427 114.438 11.9289 114.261 12.1028C114.128 12.2337 113.906 12.4076 113.685 12.5815C113.418 12.7124 113.108 12.8432 112.753 12.974C112.399 13.1049 111.956 13.148 111.511 13.148C110.847 13.148 110.271 13.0171 109.739 12.8001C109.251 12.5384 108.808 12.2337 108.408 11.8427C108.054 11.4502 107.787 10.9715 107.566 10.4928C107.388 10.0141 107.301 9.49081 107.301 8.96902C107.301 8.3595 107.388 7.79307 107.609 7.27128C107.833 6.74795 108.098 6.26926 108.497 5.9214C108.851 5.5289 109.294 5.22414 109.826 5.00711C110.358 4.78855 110.936 4.70235 111.557 4.70235C112.089 4.70235 112.621 4.78855 113.153 5.00712C113.685 5.22414 114.084 5.5289 114.438 5.9645L113.507 6.61712Z"
                                    fill="black" />
                                <path id="path138"
                                    d="M115.414 10.2312C115.414 9.83868 115.502 9.49082 115.635 9.14296C115.813 8.7951 115.991 8.49034 116.256 8.27177C116.523 8.01011 116.833 7.79308 117.187 7.66225C117.542 7.48832 117.941 7.40059 118.34 7.40059C118.74 7.40059 119.138 7.48832 119.493 7.66225C119.848 7.79308 120.158 8.01011 120.425 8.27177C120.69 8.49034 120.868 8.7951 121.044 9.14296C121.178 9.49082 121.266 9.83868 121.266 10.2312C121.266 10.6668 121.178 11.0146 121.044 11.3625C120.868 11.7119 120.69 12.0167 120.425 12.2768C120.158 12.4953 119.848 12.7124 119.493 12.8432C119.138 13.0171 118.74 13.0618 118.34 13.0618C117.941 13.0618 117.542 13.0171 117.187 12.8432C116.833 12.7124 116.523 12.4953 116.256 12.2768C115.991 12.0166 115.813 11.7119 115.635 11.3625C115.502 11.0146 115.414 10.6668 115.414 10.2312ZM116.523 10.2312C116.523 10.5359 116.567 10.7976 116.655 11.0146C116.744 11.2332 116.877 11.4502 117.01 11.5811C117.187 11.755 117.365 11.8858 117.587 11.972C117.808 12.0597 118.074 12.1475 118.34 12.1475C118.606 12.1475 118.872 12.0597 119.094 11.972C119.316 11.8858 119.493 11.755 119.67 11.5811C119.804 11.4502 119.937 11.2332 120.025 11.0146C120.114 10.7976 120.158 10.5359 120.158 10.2312C120.158 9.96951 120.114 9.70939 120.025 9.49082C119.937 9.27379 119.804 9.05523 119.67 8.9244C119.493 8.75047 119.316 8.61963 119.094 8.53344C118.872 8.40261 118.606 8.35951 118.34 8.35951C118.074 8.35951 117.808 8.40261 117.587 8.53344C117.365 8.61963 117.187 8.75046 117.01 8.92439C116.877 9.05523 116.744 9.27379 116.655 9.49082C116.567 9.70939 116.523 9.96951 116.523 10.2312Z"
                                    fill="black" />
                                <path id="path140"
                                    d="M128.051 12.9309L127.031 12.9309L127.031 12.1906L126.987 12.1906C126.809 12.4522 126.499 12.6693 126.145 12.8432C125.834 13.0171 125.435 13.0618 125.08 13.0618C124.681 13.0618 124.282 13.0171 123.927 12.8863C123.572 12.7124 123.307 12.5384 123.04 12.2768C122.818 12.0166 122.64 11.7119 122.508 11.3625C122.375 11.0146 122.286 10.6668 122.286 10.2312C122.286 9.83868 122.375 9.49082 122.508 9.14296C122.64 8.7951 122.818 8.49034 123.04 8.22868C123.307 7.96701 123.572 7.79308 123.927 7.61915C124.282 7.48832 124.681 7.40059 125.08 7.40059C125.478 7.40059 125.834 7.48832 126.188 7.66225C126.542 7.83618 126.809 8.05475 126.987 8.31487L127.031 8.31487L127.031 4.35297L128.051 4.35297L128.051 12.9309ZM125.213 12.1475C125.478 12.1475 125.745 12.0597 125.967 11.972C126.188 11.8858 126.366 11.755 126.542 11.5811C126.677 11.4502 126.809 11.2332 126.898 11.0146C126.987 10.7976 127.031 10.5359 127.031 10.2312C127.031 9.96951 126.987 9.70939 126.898 9.49082C126.809 9.27379 126.677 9.05523 126.542 8.9244C126.366 8.75047 126.188 8.61963 125.967 8.53344C125.745 8.40261 125.478 8.35951 125.213 8.35951C124.946 8.35951 124.681 8.40261 124.459 8.53344C124.238 8.61963 124.06 8.75047 123.882 8.92439C123.75 9.05523 123.617 9.27379 123.528 9.49082C123.439 9.70939 123.395 9.96951 123.395 10.2312C123.395 10.5359 123.439 10.7976 123.528 11.0146C123.617 11.2332 123.75 11.4502 123.882 11.5811C124.06 11.755 124.238 11.8858 124.46 11.972C124.681 12.0597 124.946 12.1475 125.213 12.1475Z"
                                    fill="black" />
                                <path id="path142"
                                    d="M130.401 10.6238C130.401 10.8408 130.49 11.0579 130.577 11.2764C130.666 11.4503 130.8 11.6243 130.976 11.7551C131.154 11.8859 131.376 12.0168 131.597 12.103C131.819 12.1476 132.04 12.1907 132.262 12.1907C132.618 12.1907 132.883 12.103 133.104 11.9721C133.371 11.8428 133.593 11.6243 133.771 11.4073L134.568 11.9721C133.992 12.7125 133.193 13.0619 132.129 13.0619C131.686 13.0619 131.332 13.0173 130.976 12.8864C130.622 12.7125 130.312 12.5386 130.045 12.2769C129.823 12.0168 129.647 11.712 129.513 11.3626C129.38 11.0148 129.291 10.6669 129.291 10.2313C129.291 9.8388 129.38 9.49094 129.513 9.14308C129.647 8.79522 129.869 8.49046 130.134 8.2288C130.355 7.96713 130.666 7.7932 131.022 7.61927C131.376 7.48844 131.73 7.40071 132.129 7.40071C132.618 7.40071 133.061 7.48844 133.371 7.66237C133.725 7.8363 133.992 8.05487 134.214 8.31499C134.435 8.57666 134.568 8.88142 134.657 9.22928C134.789 9.57868 134.835 9.92654 134.835 10.2744L134.835 10.6238L130.401 10.6238ZM133.725 9.79571C133.682 9.57868 133.682 9.36011 133.593 9.18618C133.549 9.01225 133.415 8.83832 133.282 8.70749C133.15 8.53356 133.016 8.44583 132.794 8.35963C132.618 8.2719 132.396 8.2288 132.129 8.2288C131.864 8.2288 131.643 8.2719 131.419 8.40273C131.198 8.49046 131.022 8.61976 130.887 8.75059C130.755 8.88142 130.622 9.05535 130.533 9.27392C130.444 9.44785 130.401 9.62177 130.401 9.7957L133.725 9.79571Z"
                                    fill="black" />
                                <path id="path144"
                                    d="M139.801 11.2763C139.977 11.5379 140.244 11.755 140.554 11.9289C140.865 12.0597 141.219 12.1475 141.53 12.1475C141.707 12.1475 141.929 12.1028 142.105 12.0597C142.283 11.972 142.461 11.8858 142.637 11.7981C142.771 11.6672 142.904 11.5379 142.993 11.3625C143.126 11.1885 143.169 11.0146 143.169 10.7976C143.169 10.4928 143.082 10.2312 142.859 10.0572C142.682 9.9264 142.416 9.79557 142.105 9.66474C141.84 9.53391 141.484 9.44771 141.13 9.35998C140.776 9.22914 140.465 9.09985 140.155 8.92438C139.888 8.75045 139.623 8.49033 139.445 8.18557C139.224 7.8808 139.135 7.48831 139.135 6.92188C139.135 6.70485 139.18 6.44319 139.269 6.18152C139.401 5.9214 139.534 5.70283 139.756 5.48581C139.977 5.22414 140.288 5.05021 140.643 4.91938C140.997 4.74545 141.397 4.70235 141.884 4.70235C142.372 4.70235 142.771 4.74545 143.169 4.87628C143.614 5.00712 143.968 5.22414 144.279 5.61664L143.347 6.40009C143.215 6.22616 143.037 6.05223 142.771 5.9214C142.505 5.79057 142.239 5.70283 141.884 5.70283C141.573 5.70283 141.352 5.74747 141.13 5.83367C140.909 5.9214 140.776 6.0076 140.643 6.13843C140.509 6.26926 140.42 6.40009 140.377 6.53092C140.333 6.70485 140.288 6.83569 140.288 6.92188C140.288 7.27128 140.42 7.53141 140.598 7.74997C140.82 7.9239 141.041 8.05473 141.352 8.18557C141.662 8.27176 141.973 8.40259 142.327 8.49033C142.682 8.57652 142.993 8.70736 143.303 8.83819C143.614 9.01212 143.835 9.22914 144.057 9.53391C144.233 9.79557 144.322 10.1881 144.322 10.6668C144.322 11.0577 144.279 11.4071 144.101 11.7119C143.968 12.0166 143.747 12.2768 143.525 12.4953C143.258 12.7124 142.948 12.8863 142.594 12.974C142.283 13.1049 141.884 13.148 141.484 13.148C140.952 13.1479 140.465 13.0618 140.022 12.8863C139.534 12.7124 139.18 12.4076 138.869 12.0166L139.801 11.2763Z"
                                    fill="black" />
                                <path id="path146"
                                    d="M148.667 8.44583L147.16 8.44583L147.16 10.8839C147.16 11.0579 147.16 11.1887 147.16 11.3195C147.206 11.4934 147.206 11.6243 147.249 11.7551C147.338 11.8428 147.382 11.929 147.514 12.0168C147.603 12.103 147.738 12.1476 147.959 12.1476C148.092 12.1476 148.224 12.103 148.357 12.103C148.491 12.0599 148.58 12.0168 148.713 11.9721L148.713 12.8864C148.58 12.9742 148.402 13.0173 148.224 13.0619C148.003 13.0619 147.87 13.0619 147.781 13.0619C147.338 13.0619 147.028 13.0173 146.85 12.9311C146.628 12.8002 146.45 12.6694 146.363 12.4955C146.229 12.3215 146.185 12.103 146.14 11.8859C146.14 11.6674 146.14 11.4503 146.14 11.2333L146.14 8.44583L144.943 8.44583L144.943 7.57618L146.14 7.57618L146.14 6.05237L147.16 6.05237L147.16 7.57618L148.667 7.57618L148.667 8.44583Z"
                                    fill="black" />
                                <path id="path148"
                                    d="M150.042 8.2288C150.309 7.96713 150.663 7.75011 151.062 7.61927C151.416 7.48844 151.816 7.40071 152.215 7.40071C152.615 7.40071 152.969 7.48844 153.234 7.57618C153.544 7.66237 153.768 7.7932 153.944 7.96713C154.122 8.14106 154.3 8.31499 154.381 8.53356C154.428 8.75059 154.474 8.96915 154.474 9.22928L154.474 11.9721C154.474 12.1476 154.521 12.3215 154.521 12.4955C154.521 12.6694 154.521 12.8002 154.568 12.9311L153.633 12.9311C153.59 12.6694 153.59 12.4077 153.59 12.1476L153.545 12.1476C153.323 12.4955 153.058 12.7125 152.747 12.8864C152.437 13.0173 152.037 13.0619 151.638 13.0619C151.373 13.0619 151.151 13.0619 150.93 12.9742C150.663 12.9311 150.487 12.8002 150.309 12.6694C150.131 12.5386 149.998 12.3646 149.909 12.1476C149.777 11.9721 149.731 11.712 149.731 11.4503C149.731 11.1025 149.82 10.8408 149.998 10.5792C150.131 10.3621 150.352 10.1436 150.619 10.0143C150.884 9.88344 151.24 9.75261 151.594 9.70951C151.948 9.62178 152.348 9.62178 152.747 9.62178L153.545 9.62178L153.545 9.36011C153.545 9.22928 153.501 9.09999 153.457 8.96916C153.412 8.83832 153.323 8.70749 153.19 8.57666C153.101 8.49046 152.969 8.40273 152.791 8.31499C152.615 8.2719 152.437 8.2288 152.215 8.2288C152.037 8.2288 151.861 8.2719 151.683 8.31499C151.551 8.31499 151.416 8.40273 151.284 8.44583C151.151 8.49046 151.062 8.57666 150.93 8.61975C150.841 8.70749 150.752 8.79522 150.663 8.83832L150.042 8.2288ZM152.969 10.3621C152.702 10.3621 152.48 10.3621 152.215 10.4052C151.948 10.4052 151.727 10.493 151.505 10.5361C151.284 10.6238 151.106 10.71 150.973 10.8839C150.841 11.0148 150.795 11.1887 150.795 11.4072C150.795 11.712 150.884 11.929 151.106 12.0599C151.327 12.1907 151.594 12.2769 151.948 12.2769C152.259 12.2769 152.48 12.2338 152.702 12.103C152.88 12.0168 153.058 11.8859 153.19 11.7551C153.323 11.5812 153.412 11.4503 153.457 11.2333C153.501 11.0579 153.545 10.8839 153.545 10.71L153.545 10.3621L152.969 10.3621Z"
                                    fill="black" />
                                <path id="path150"
                                    d="M156.035 7.57615L157.049 7.57615L157.049 8.4027L157.095 8.4027C157.22 8.09794 157.454 7.88091 157.751 7.70544C158.063 7.48842 158.468 7.40068 158.859 7.40068C159.139 7.40068 159.405 7.44532 159.67 7.53151C159.888 7.61925 160.107 7.75008 160.278 7.92401C160.466 8.05484 160.59 8.27187 160.731 8.53353C160.824 8.7952 160.856 9.14306 160.856 9.49092L160.856 12.931L159.841 12.931L159.841 9.75258C159.841 9.49092 159.795 9.31699 159.701 9.09996C159.67 8.92449 159.576 8.7952 159.436 8.70746C159.358 8.57663 159.217 8.49044 159.046 8.4458C158.905 8.4027 158.734 8.3596 158.593 8.3596C158.375 8.3596 158.156 8.4027 157.985 8.49044C157.798 8.53353 157.626 8.66436 157.486 8.7952C157.361 8.96913 157.267 9.14306 157.174 9.36008C157.096 9.57865 157.049 9.83877 157.049 10.1882L157.049 12.931L156.035 12.931L156.035 7.57615Z"
                                    fill="black" />
                                <path id="path152"
                                    d="M167.954 12.9311L166.894 12.9311L166.894 12.1907C166.675 12.4524 166.41 12.6694 166.051 12.8433C165.692 13.0173 165.333 13.0619 164.99 13.0619C164.538 13.0619 164.179 13.0173 163.836 12.8864C163.477 12.7125 163.165 12.5386 162.946 12.2769C162.681 12.0168 162.509 11.712 162.369 11.3626C162.229 11.0148 162.197 10.6669 162.197 10.2313C162.197 9.8388 162.229 9.49094 162.369 9.14308C162.509 8.79522 162.681 8.49046 162.946 8.2288C163.165 7.96713 163.477 7.7932 163.836 7.61928C164.179 7.48844 164.538 7.40071 164.99 7.40071C165.38 7.40071 165.739 7.48844 166.098 7.66237C166.441 7.8363 166.706 8.05487 166.894 8.31499L166.894 4.35309L167.954 4.35309L167.954 12.9311ZM165.115 12.1476C165.38 12.1476 165.645 12.0599 165.864 11.9721C166.098 11.8859 166.269 11.7551 166.41 11.5812C166.581 11.4503 166.706 11.2333 166.753 11.0148C166.847 10.7977 166.894 10.5361 166.894 10.2313C166.894 9.96964 166.847 9.70951 166.753 9.49094C166.706 9.27392 166.581 9.05535 166.41 8.92452C166.269 8.75059 166.098 8.61976 165.864 8.53356C165.645 8.40273 165.38 8.35963 165.115 8.35963C164.803 8.35963 164.584 8.40273 164.366 8.53356C164.148 8.61976 163.914 8.75059 163.789 8.92452C163.617 9.05535 163.524 9.27392 163.43 9.49094C163.336 9.70951 163.305 9.96964 163.305 10.2313C163.305 10.5361 163.336 10.7977 163.43 11.0148C163.524 11.2333 163.617 11.4503 163.789 11.5812C163.914 11.7551 164.148 11.8859 164.366 11.9721C164.584 12.0599 164.803 12.1476 165.115 12.1476Z"
                                    fill="black" />
                                <path id="path154"
                                    d="M169.546 8.2288C169.858 7.96713 170.17 7.75011 170.576 7.61927C170.966 7.48844 171.324 7.40071 171.73 7.40071C172.12 7.40071 172.479 7.48844 172.744 7.57618C173.056 7.66237 173.275 7.7932 173.446 7.96713C173.68 8.14106 173.805 8.31499 173.899 8.53356C173.992 8.75059 174.024 8.96915 174.024 9.22928L174.024 11.9721C174.024 12.1476 174.024 12.3215 174.024 12.4955C174.024 12.6694 174.024 12.8002 174.07 12.9311L173.15 12.9311C173.103 12.6694 173.103 12.4077 173.103 12.1476C172.838 12.4955 172.573 12.7125 172.261 12.8864C171.949 13.0173 171.59 13.0619 171.153 13.0619C170.888 13.0619 170.654 13.0619 170.435 12.9742C170.217 12.9311 169.998 12.8002 169.811 12.6694C169.639 12.5386 169.515 12.3646 169.421 12.1476C169.327 11.9721 169.234 11.712 169.234 11.4503C169.234 11.1025 169.327 10.8408 169.515 10.5792C169.639 10.3621 169.858 10.1436 170.123 10.0143C170.435 9.88344 170.747 9.75261 171.106 9.70951C171.465 9.62178 171.855 9.62178 172.307 9.62178L173.056 9.62178L173.056 9.36011C173.056 9.22928 173.009 9.09999 172.963 8.96916C172.916 8.83832 172.838 8.70749 172.697 8.57666C172.604 8.49046 172.479 8.40273 172.307 8.31499C172.167 8.2719 171.949 8.2288 171.73 8.2288C171.543 8.2288 171.371 8.2719 171.2 8.31499C171.059 8.31499 170.919 8.40273 170.794 8.44583C170.654 8.49046 170.576 8.57666 170.482 8.61975C170.357 8.70749 170.264 8.79522 170.17 8.83832L169.546 8.2288ZM172.479 10.3621C172.261 10.3621 171.995 10.3621 171.73 10.4052C171.465 10.4052 171.231 10.493 171.012 10.5361C170.794 10.6238 170.654 10.71 170.482 10.8839C170.357 11.0148 170.31 11.1887 170.31 11.4072C170.31 11.712 170.388 11.929 170.622 12.0599C170.841 12.1907 171.106 12.2769 171.496 12.2769C171.761 12.2769 171.995 12.2338 172.214 12.103C172.432 12.0168 172.573 11.8859 172.697 11.7551C172.838 11.5812 172.916 11.4503 172.963 11.2333C173.009 11.0579 173.056 10.8839 173.056 10.71L173.056 10.3621L172.479 10.3621Z"
                                    fill="black" />
                                <path id="path156"
                                    d="M175.537 7.57615L176.551 7.57615L176.551 8.4027L176.598 8.4027C176.645 8.22877 176.785 8.09794 176.863 8.0102C177.004 7.88091 177.128 7.79318 177.269 7.70544C177.394 7.61925 177.581 7.53151 177.752 7.48842C177.893 7.44532 178.064 7.40068 178.236 7.40068C178.423 7.40068 178.548 7.44532 178.689 7.48842L178.642 8.57663C178.548 8.57663 178.501 8.53353 178.423 8.53353C178.33 8.53353 178.236 8.53353 178.158 8.53353C177.628 8.53353 177.269 8.66436 177.004 8.92449C176.691 9.22925 176.551 9.66485 176.551 10.2313L176.551 12.931L175.537 12.931L175.537 7.57615Z"
                                    fill="black" />
                                <path id="path158"
                                    d="M87.8793 18.5476L90.7609 18.5476C91.293 18.5476 91.7376 18.5907 92.0465 18.7646C92.4022 18.8954 92.6675 19.0694 92.8453 19.2872C93.0669 19.5048 93.1995 19.7226 93.2884 20.0274C93.3337 20.2886 93.3774 20.5498 93.3774 20.811C93.3774 21.0286 93.3337 21.29 93.2884 21.5512C93.1995 21.8559 93.0669 22.0736 92.8453 22.2912C92.6675 22.509 92.4023 22.6831 92.0465 22.8138C91.7376 22.9879 91.293 23.0314 90.7609 23.0314L88.9886 23.0314L88.9886 26.6014L87.8793 26.6014L87.8793 18.5476ZM88.9886 22.0736L90.4505 22.0736C90.672 22.0736 90.8951 22.0736 91.0714 22.03C91.293 21.9865 91.4708 21.9429 91.6487 21.8559C91.825 21.7688 91.9592 21.6381 92.0465 21.464C92.1355 21.29 92.2244 21.0722 92.2244 20.811C92.2244 20.5062 92.1355 20.2886 92.0465 20.1143C91.9592 19.9402 91.825 19.8096 91.6487 19.7226C91.4708 19.6355 91.293 19.5919 91.0714 19.5484C90.8951 19.5048 90.672 19.5048 90.4505 19.5048L88.9886 19.5048L88.9886 22.0736Z"
                                    fill="black" />
                                <path id="path160"
                                    d="M95.284 24.2504C95.284 24.5116 95.3276 24.7292 95.4166 24.9035C95.5055 25.1211 95.6381 25.2518 95.816 25.4259C95.9938 25.5566 96.2154 25.6435 96.4369 25.7307C96.6585 25.8178 96.88 25.8178 97.1016 25.8178C97.4573 25.8178 97.7225 25.7742 97.9441 25.6001C98.2109 25.4695 98.4324 25.2518 98.6087 25.034L99.4075 25.6001C98.8318 26.3402 98.033 26.7321 96.969 26.7321C96.5259 26.7321 96.1702 26.6449 95.816 26.5144C95.4618 26.3837 95.1513 26.1661 94.9298 25.9049C94.663 25.6435 94.4867 25.3388 94.3525 24.9904C94.2199 24.6857 94.131 24.294 94.131 23.9021C94.131 23.5102 94.2199 23.1185 94.3525 22.7702C94.4867 22.4218 94.7082 22.1171 94.9735 21.8559C95.195 21.6381 95.5055 21.4204 95.8597 21.2899C96.2154 21.1157 96.5695 21.0721 96.969 21.0721C97.4573 21.0721 97.9004 21.1592 98.2109 21.3333C98.565 21.464 98.8318 21.6816 99.0534 21.9864C99.2749 22.2476 99.4075 22.5524 99.4965 22.8571C99.6291 23.2054 99.6743 23.5538 99.6743 23.9021L99.6743 24.2504L95.284 24.2504ZM98.565 23.4666C98.5213 23.2054 98.5213 23.0314 98.4324 22.8137C98.3872 22.6395 98.2546 22.4654 98.1656 22.3347C98.033 22.2042 97.8551 22.0735 97.6336 21.9864C97.4573 21.8994 97.2342 21.8994 96.969 21.8994C96.7022 21.8994 96.4806 21.9428 96.2591 22.03C96.0375 22.1171 95.8597 22.2476 95.7271 22.3783C95.5944 22.5524 95.4618 22.7266 95.3729 22.9007C95.284 23.0749 95.284 23.249 95.284 23.4666L98.565 23.4666Z"
                                    fill="black" />
                                <path id="path162"
                                    d="M100.915 21.2028L101.89 21.2028L101.89 22.03C101.935 21.9429 101.979 21.8559 102.068 21.7688C102.2 21.6381 102.289 21.5512 102.467 21.4205C102.6 21.3334 102.778 21.2464 102.999 21.1593C103.177 21.1157 103.399 21.0722 103.664 21.0722C104.063 21.0722 104.417 21.1593 104.684 21.3334C104.995 21.464 105.216 21.7253 105.394 22.0736C105.57 21.7253 105.792 21.4641 106.148 21.3334C106.458 21.1593 106.769 21.0722 107.123 21.0722C107.522 21.0722 107.876 21.1157 108.143 21.2464C108.408 21.4205 108.63 21.5947 108.808 21.8124C108.94 22.03 109.073 22.2912 109.118 22.5524C109.162 22.8572 109.207 23.1619 109.207 23.4667L109.207 26.6014L108.143 26.6014L108.143 23.5974C108.143 23.3797 108.143 23.1619 108.098 22.9879C108.098 22.8138 108.054 22.6395 107.965 22.509C107.876 22.3348 107.744 22.2477 107.609 22.1607C107.433 22.0736 107.212 22.03 106.99 22.03C106.458 22.03 106.102 22.1607 105.881 22.4655C105.703 22.7702 105.57 23.1619 105.57 23.6409L105.57 26.6014L104.552 26.6014L104.552 23.7715C104.551 23.5103 104.506 23.2926 104.506 23.075C104.463 22.8572 104.417 22.6831 104.328 22.509C104.241 22.3348 104.152 22.2477 103.974 22.1607C103.842 22.0736 103.62 22.03 103.399 22.03C103.177 22.03 102.999 22.0736 102.821 22.1171C102.645 22.2043 102.511 22.2912 102.378 22.4655C102.246 22.596 102.157 22.7702 102.068 22.9879C101.979 23.2055 101.935 23.4667 101.935 23.7715L101.935 26.6014L100.915 26.6014L100.915 21.2028Z"
                                    fill="black" />
                                <path id="path164"
                                    d="M110.758 17.9811L111.822 17.9811L111.822 21.9864C112.044 21.6816 112.31 21.464 112.621 21.2899C112.975 21.1592 113.374 21.0721 113.729 21.0721C114.172 21.0721 114.571 21.1157 114.882 21.2899C115.237 21.4204 115.546 21.6381 115.769 21.8559C116.034 22.1171 116.212 22.4218 116.345 22.7702C116.478 23.1185 116.523 23.5102 116.523 23.9021C116.523 24.294 116.478 24.6857 116.345 24.9905C116.212 25.3388 116.034 25.6435 115.769 25.9049C115.546 26.1661 115.237 26.3837 114.882 26.5144C114.571 26.6449 114.172 26.7321 113.729 26.7321C113.374 26.7321 113.02 26.6449 112.664 26.4709C112.31 26.3402 112.044 26.1225 111.822 25.8178L111.822 26.6014L110.758 26.6014L110.758 17.9811ZM113.64 25.7742C113.906 25.7742 114.172 25.7307 114.395 25.6435C114.616 25.513 114.793 25.3823 114.927 25.2518C115.103 25.0776 115.237 24.8599 115.281 24.6423C115.37 24.4245 115.414 24.1633 115.414 23.9021C115.414 23.6409 115.37 23.3797 115.281 23.1185C115.237 22.9007 115.103 22.7266 114.927 22.5524C114.793 22.3783 114.616 22.2476 114.395 22.1606C114.172 22.0735 113.906 22.03 113.64 22.03C113.331 22.03 113.108 22.0735 112.886 22.1606C112.664 22.2476 112.443 22.3783 112.31 22.5524C112.132 22.7266 112.044 22.9007 111.956 23.1185C111.867 23.3797 111.822 23.6409 111.822 23.9021C111.822 24.1633 111.867 24.4245 111.956 24.6423C112.044 24.8599 112.132 25.0776 112.31 25.2518C112.443 25.3823 112.664 25.513 112.886 25.6435C113.108 25.7307 113.331 25.7742 113.64 25.7742Z"
                                    fill="black" />
                                <path id="path166"
                                    d="M117.852 21.8559C118.163 21.5947 118.518 21.3769 118.873 21.2463C119.272 21.1157 119.67 21.0721 120.069 21.0721C120.469 21.0721 120.779 21.1157 121.09 21.2028C121.355 21.2899 121.622 21.4204 121.799 21.5947C121.976 21.7688 122.108 21.9864 122.197 22.1606C122.286 22.3783 122.331 22.6395 122.331 22.8571L122.331 25.6001C122.331 25.8178 122.331 25.9919 122.331 26.1225C122.375 26.2966 122.375 26.4273 122.375 26.6014L121.444 26.6014C121.444 26.2966 121.444 26.0354 121.444 25.7742L121.4 25.7742C121.178 26.1225 120.912 26.3837 120.601 26.5144C120.247 26.6449 119.893 26.7321 119.493 26.7321C119.227 26.7321 118.961 26.6885 118.74 26.6014C118.518 26.5578 118.295 26.4709 118.163 26.2966C117.986 26.1661 117.852 25.9919 117.72 25.8178C117.631 25.6001 117.587 25.3823 117.587 25.1211C117.587 24.7728 117.676 24.468 117.808 24.2504C117.986 23.9892 118.208 23.815 118.473 23.6409C118.74 23.5102 119.05 23.4232 119.448 23.3361C119.804 23.2926 120.202 23.249 120.601 23.249L121.355 23.249L121.355 23.0314C121.355 22.9007 121.355 22.7266 121.266 22.5959C121.222 22.4654 121.133 22.3347 121.044 22.2476C120.957 22.1171 120.779 22.03 120.646 21.9864C120.469 21.8994 120.291 21.8994 120.069 21.8994C119.848 21.8994 119.67 21.8994 119.537 21.9428C119.359 21.9864 119.227 22.03 119.138 22.0735C119.005 22.1171 118.872 22.2042 118.784 22.2912C118.695 22.3347 118.606 22.4218 118.473 22.5089L117.852 21.8559ZM120.823 23.9892C120.558 23.9892 120.291 23.9892 120.069 24.0328C119.804 24.0762 119.582 24.1197 119.359 24.2068C119.138 24.2504 118.961 24.3809 118.827 24.5116C118.695 24.6423 118.606 24.8164 118.606 25.034C118.606 25.3388 118.74 25.5566 118.961 25.6871C119.138 25.8178 119.448 25.9049 119.804 25.9049C120.069 25.9049 120.336 25.8613 120.512 25.7742C120.734 25.6871 120.912 25.5566 121.001 25.3823C121.133 25.2518 121.222 25.0776 121.266 24.9035C121.355 24.6857 121.355 24.5116 121.355 24.3375L121.355 23.9892L120.823 23.9892Z"
                                    fill="black" />
                                <path id="path168"
                                    d="M123.218 21.2028L124.414 21.2028L126.056 25.4259L127.606 21.2028L128.716 21.2028L126.145 27.7334C126.056 27.9946 125.921 28.2123 125.834 28.3864C125.745 28.5606 125.612 28.7347 125.478 28.8654C125.346 29.0395 125.168 29.1266 124.992 29.2137C124.77 29.2573 124.547 29.3007 124.238 29.3007C124.104 29.3007 123.927 29.3007 123.793 29.3007C123.617 29.2573 123.483 29.2137 123.35 29.1701L123.483 28.2558C123.661 28.2994 123.882 28.343 124.104 28.343C124.238 28.343 124.371 28.343 124.503 28.2994C124.592 28.2558 124.681 28.2123 124.77 28.1252C124.857 28.0382 124.946 27.9511 124.992 27.8204C125.035 27.7334 125.08 27.6028 125.124 27.4721L125.478 26.6014L123.218 21.2028Z"
                                    fill="black" />
                                <path id="path170"
                                    d="M129.647 21.8559C129.958 21.5947 130.312 21.3769 130.666 21.2463C131.065 21.1157 131.465 21.0721 131.864 21.0721C132.262 21.0721 132.573 21.1157 132.883 21.2028C133.15 21.2899 133.415 21.4204 133.593 21.5947C133.771 21.7688 133.903 21.9864 133.992 22.1606C134.081 22.3783 134.125 22.6395 134.125 22.8571L134.125 25.6001C134.125 25.8178 134.125 25.9919 134.169 26.1225C134.169 26.2966 134.169 26.4273 134.169 26.6014L133.239 26.6014C133.239 26.2966 133.239 26.0354 133.239 25.7742L133.194 25.7742C132.972 26.1225 132.707 26.3837 132.396 26.5144C132.041 26.6449 131.686 26.7321 131.287 26.7321C131.022 26.7321 130.755 26.6885 130.533 26.6014C130.312 26.5578 130.134 26.4709 129.958 26.2966C129.78 26.1661 129.647 25.9919 129.513 25.8178C129.426 25.6001 129.38 25.3823 129.38 25.1211C129.38 24.7728 129.469 24.468 129.602 24.2504C129.78 23.9892 130.001 23.815 130.268 23.6409C130.533 23.5102 130.844 23.4232 131.243 23.3361C131.597 23.2926 131.997 23.249 132.396 23.249L133.15 23.249L133.15 23.0314C133.15 22.9007 133.15 22.7266 133.061 22.5959C133.016 22.4654 132.928 22.3347 132.839 22.2476C132.75 22.1171 132.573 22.03 132.44 21.9864C132.262 21.8994 132.086 21.8994 131.864 21.8994C131.643 21.8994 131.465 21.8994 131.332 21.9428C131.198 21.9864 131.022 22.03 130.933 22.0735C130.8 22.1171 130.666 22.2042 130.577 22.2912C130.49 22.3347 130.401 22.4218 130.312 22.5089L129.647 21.8559ZM132.618 23.9892C132.351 23.9892 132.086 23.9892 131.864 24.0328C131.597 24.0762 131.376 24.1197 131.154 24.2068C130.933 24.2504 130.755 24.3809 130.622 24.5116C130.49 24.6423 130.401 24.8164 130.401 25.034C130.401 25.3388 130.533 25.5566 130.755 25.6871C130.933 25.8178 131.243 25.9049 131.597 25.9049C131.908 25.9049 132.129 25.8613 132.351 25.7742C132.529 25.6871 132.707 25.5566 132.794 25.3823C132.928 25.2518 133.016 25.0776 133.061 24.9035C133.15 24.6857 133.15 24.5116 133.15 24.3375L133.15 23.9892L132.618 23.9892Z"
                                    fill="black" />
                                <path id="path172"
                                    d="M135.632 21.2028L136.696 21.2028L136.696 22.03C136.785 21.8995 136.874 21.7688 137.007 21.6381C137.095 21.5076 137.228 21.4205 137.362 21.3334C137.539 21.2464 137.671 21.2028 137.849 21.1157C138.027 21.0722 138.203 21.0722 138.381 21.0722C138.514 21.0722 138.692 21.0722 138.824 21.1157L138.78 22.2477C138.692 22.2043 138.603 22.2043 138.514 22.1607C138.426 22.1607 138.337 22.1607 138.248 22.1607C137.76 22.1607 137.362 22.2912 137.095 22.5524C136.83 22.8572 136.696 23.2926 136.696 23.9021L136.696 26.6014L135.632 26.6014L135.632 21.2028Z"
                                    fill="black" />
                                <path id="path174"
                                    d="M139.977 21.8559C140.244 21.5947 140.598 21.3769 140.998 21.2463C141.352 21.1157 141.751 21.0721 142.151 21.0721C142.55 21.0721 142.859 21.1157 143.169 21.2028C143.48 21.2899 143.701 21.4204 143.879 21.5947C144.057 21.7688 144.19 21.9864 144.279 22.1606C144.368 22.3783 144.411 22.6395 144.411 22.8571L144.411 25.6001C144.411 25.8178 144.411 25.9919 144.456 26.1225C144.456 26.2966 144.456 26.4273 144.456 26.6014L143.569 26.6014C143.525 26.2966 143.525 26.0354 143.525 25.7742L143.48 25.7742C143.258 26.1225 142.993 26.3837 142.683 26.5144C142.372 26.6449 141.973 26.7321 141.573 26.7321C141.308 26.7321 141.086 26.6885 140.82 26.6014C140.598 26.5578 140.42 26.4709 140.244 26.2966C140.066 26.1661 139.933 25.9919 139.801 25.8178C139.712 25.6001 139.667 25.3823 139.667 25.1211C139.667 24.7728 139.756 24.468 139.888 24.2504C140.066 23.9892 140.288 23.815 140.554 23.6409C140.82 23.5102 141.13 23.4232 141.53 23.3361C141.884 23.2926 142.283 23.249 142.683 23.249L143.436 23.249L143.436 23.0314C143.436 22.9007 143.436 22.7266 143.392 22.5959C143.303 22.4654 143.258 22.3347 143.126 22.2476C143.037 22.1171 142.904 22.03 142.726 21.9864C142.55 21.8994 142.372 21.8994 142.151 21.8994C141.929 21.8994 141.751 21.8994 141.618 21.9428C141.484 21.9864 141.352 22.03 141.219 22.0735C141.086 22.1171 140.952 22.2042 140.865 22.2912C140.776 22.3347 140.687 22.4218 140.598 22.5089L139.977 21.8559ZM142.904 23.9892C142.637 23.9892 142.416 23.9892 142.151 24.0328C141.884 24.0762 141.662 24.1197 141.441 24.2068C141.219 24.2504 141.041 24.3809 140.909 24.5116C140.776 24.6423 140.731 24.8164 140.731 25.034C140.731 25.3388 140.82 25.5566 141.041 25.6871C141.263 25.8178 141.53 25.9049 141.884 25.9049C142.194 25.9049 142.416 25.8613 142.637 25.7742C142.815 25.6871 142.993 25.5566 143.126 25.3823C143.215 25.2518 143.303 25.0776 143.392 24.9035C143.436 24.6857 143.436 24.5116 143.436 24.3375L143.436 23.9892L142.904 23.9892Z"
                                    fill="black" />
                                <path id="path176"
                                    d="M145.964 21.2028L146.982 21.2028L146.982 22.03L147.028 22.03C147.16 21.7253 147.382 21.5076 147.692 21.3334C148.003 21.1593 148.402 21.0722 148.802 21.0722C149.067 21.0722 149.334 21.1157 149.555 21.1593C149.82 21.2464 150.042 21.3769 150.22 21.5512C150.398 21.7253 150.53 21.9429 150.663 22.2043C150.752 22.4655 150.796 22.7702 150.796 23.1185L150.796 26.6014L149.777 26.6014L149.777 23.4233C149.777 23.1619 149.731 22.9443 149.644 22.7702C149.599 22.596 149.51 22.4219 149.377 22.3348C149.245 22.2043 149.112 22.1607 148.978 22.0736C148.845 22.03 148.667 22.03 148.535 22.03C148.313 22.03 148.092 22.03 147.914 22.1171C147.738 22.2043 147.56 22.2912 147.427 22.4219C147.293 22.596 147.16 22.7702 147.117 22.9879C147.028 23.2491 146.982 23.5103 146.982 23.815L146.982 26.6014L145.964 26.6014L145.964 21.2028Z"
                                    fill="black" />
                                <path id="path178"
                                    d="M155.847 18.5476L157.314 18.5476L161.839 25.1648L161.885 25.1648L161.885 18.5476L162.993 18.5476L162.993 26.6014L161.573 26.6014L157.002 19.9838L156.955 19.9838L156.955 26.6014L155.847 26.6014L155.847 18.5476Z"
                                    fill="black" />
                                <path id="path180"
                                    d="M164.85 21.8559C165.115 21.5947 165.474 21.3769 165.864 21.2463C166.223 21.1157 166.628 21.0721 167.018 21.0721C167.424 21.0721 167.783 21.1157 168.048 21.2028C168.36 21.2899 168.579 21.4204 168.75 21.5947C168.937 21.7688 169.062 21.9864 169.156 22.1606C169.234 22.3783 169.281 22.6395 169.281 22.8571L169.281 25.6001C169.281 25.8178 169.281 25.9919 169.327 26.1225C169.327 26.2966 169.327 26.4273 169.327 26.6014L168.438 26.6014C168.391 26.2966 168.391 26.0354 168.391 25.7742L168.36 25.7742C168.126 26.1225 167.861 26.3837 167.549 26.5144C167.252 26.6449 166.847 26.7321 166.441 26.7321C166.176 26.7321 165.957 26.6885 165.692 26.6014C165.474 26.5578 165.302 26.4709 165.115 26.2966C164.943 26.1661 164.803 25.9919 164.725 25.8178C164.584 25.6001 164.538 25.3823 164.538 25.1211C164.538 24.7728 164.631 24.468 164.756 24.2504C164.943 23.9892 165.162 23.815 165.427 23.6409C165.692 23.5102 166.004 23.4232 166.41 23.3361C166.753 23.2926 167.159 23.249 167.549 23.249L168.313 23.249L168.313 23.0314C168.313 22.9007 168.313 22.7266 168.267 22.5959C168.173 22.4654 168.126 22.3347 168.001 22.2476C167.908 22.1171 167.783 22.03 167.596 21.9864C167.424 21.8994 167.252 21.8994 167.018 21.8994C166.8 21.8994 166.675 21.8994 166.488 21.9428C166.363 21.9864 166.223 22.03 166.098 22.0735C165.957 22.1171 165.864 22.2042 165.739 22.2912C165.645 22.3347 165.567 22.4218 165.474 22.5089L164.85 21.8559ZM167.783 23.9892C167.518 23.9892 167.284 23.9892 167.018 24.0328C166.753 24.0762 166.535 24.1197 166.316 24.2068C166.098 24.2504 165.911 24.3809 165.786 24.5116C165.645 24.6423 165.599 24.8164 165.599 25.034C165.599 25.3388 165.692 25.5566 165.911 25.6871C166.145 25.8178 166.41 25.9049 166.753 25.9049C167.065 25.9049 167.284 25.8613 167.518 25.7742C167.689 25.6871 167.861 25.5566 168.001 25.3823C168.095 25.2518 168.173 25.0776 168.267 24.9035C168.313 24.6857 168.313 24.5116 168.313 24.3375L168.313 23.9892L167.783 23.9892Z"
                                    fill="black" />
                                <path id="path182"
                                    d="M173.727 22.5525C173.634 22.3784 173.446 22.2913 173.275 22.1608C173.103 22.0736 172.885 22.0301 172.604 22.0301C172.385 22.0301 172.167 22.0736 171.995 22.1608C171.808 22.2913 171.683 22.422 171.683 22.6396C171.683 22.7703 171.761 22.9008 171.855 22.9879C171.949 23.1186 172.073 23.162 172.214 23.2491C172.385 23.2927 172.526 23.3362 172.697 23.3798C172.838 23.4234 172.963 23.4234 173.103 23.4668C173.321 23.5103 173.54 23.5974 173.727 23.641C173.946 23.7281 174.117 23.8151 174.258 23.9458C174.382 24.0763 174.523 24.207 174.554 24.381C174.648 24.5553 174.694 24.7729 174.694 25.0341C174.694 25.3389 174.648 25.6003 174.523 25.8179C174.382 26.0355 174.211 26.2098 173.992 26.3403C173.805 26.471 173.54 26.5579 173.275 26.6451C173.009 26.6886 172.744 26.7322 172.479 26.7322C172.042 26.7322 171.636 26.6451 171.278 26.5145C170.919 26.3839 170.622 26.1227 170.357 25.7743L171.153 25.1213C171.324 25.2955 171.496 25.426 171.73 25.5567C171.902 25.6872 172.167 25.7743 172.479 25.7743C172.604 25.7743 172.744 25.7743 172.885 25.7308C173.009 25.6872 173.15 25.6437 173.228 25.6003C173.321 25.5567 173.415 25.4696 173.493 25.3825C173.54 25.2955 173.587 25.2084 173.587 25.0777C173.587 24.9472 173.54 24.8165 173.446 24.7294C173.368 24.5988 173.228 24.5553 173.103 24.4682C172.963 24.4246 172.838 24.381 172.651 24.3376C172.526 24.2941 172.385 24.2941 172.261 24.2505C172.042 24.207 171.808 24.1634 171.636 24.0763C171.418 23.9893 171.231 23.9022 171.106 23.8151C170.919 23.6846 170.841 23.5539 170.747 23.3798C170.622 23.2056 170.576 22.9879 170.576 22.7267C170.576 22.422 170.654 22.2043 170.747 21.9865C170.888 21.7689 171.059 21.5948 171.231 21.4641C171.465 21.3334 171.683 21.2465 171.902 21.1593C172.167 21.1158 172.432 21.0722 172.651 21.0722C173.056 21.0722 173.415 21.1158 173.727 21.2465C174.07 21.4206 174.336 21.6382 174.554 21.943L173.727 22.5525Z"
                                    fill="black" />
                                <path id="path184"
                                    d="M175.802 19.2872C175.802 19.0694 175.896 18.8954 176.021 18.7215C176.161 18.5907 176.333 18.5029 176.551 18.5029C176.785 18.5029 176.957 18.5907 177.082 18.7215C177.269 18.8954 177.316 19.0694 177.316 19.2872C177.316 19.4612 177.269 19.6355 177.082 19.8096C176.957 19.9402 176.785 20.0274 176.551 20.0274C176.333 20.0274 176.161 19.9402 176.021 19.8096C175.896 19.6355 175.802 19.4612 175.802 19.2872ZM176.021 21.2028L177.082 21.2028L177.082 26.6014L176.021 26.6014L176.021 21.2028Z"
                                    fill="black" />
                                <path id="path186"
                                    d="M178.47 23.9021C178.47 23.5102 178.548 23.1185 178.689 22.7702C178.86 22.4654 179.047 22.1606 179.313 21.8994C179.578 21.6381 179.89 21.4204 180.233 21.2899C180.592 21.1157 180.998 21.0721 181.388 21.0721C181.793 21.0721 182.183 21.1157 182.542 21.2899C182.901 21.4204 183.213 21.6381 183.478 21.8994C183.744 22.1606 183.915 22.4654 184.102 22.7702C184.227 23.1185 184.321 23.5102 184.321 23.9021C184.321 24.294 184.227 24.6423 184.102 24.9905C183.915 25.3388 183.744 25.6435 183.478 25.9049C183.213 26.1661 182.901 26.3402 182.542 26.5144C182.183 26.6449 181.793 26.7321 181.388 26.7321C180.998 26.7321 180.592 26.6449 180.233 26.5144C179.89 26.3402 179.578 26.1661 179.313 25.9049C179.047 25.6435 178.86 25.3388 178.689 24.9904C178.548 24.6423 178.47 24.294 178.47 23.9021ZM179.578 23.9021C179.578 24.1633 179.609 24.4245 179.703 24.6423C179.796 24.8599 179.921 25.0776 180.062 25.2518C180.233 25.3823 180.42 25.513 180.639 25.6435C180.857 25.7307 181.122 25.7742 181.388 25.7742C181.653 25.7742 181.918 25.7307 182.137 25.6435C182.371 25.513 182.542 25.3823 182.714 25.2518C182.854 25.0776 182.979 24.8599 183.073 24.6423C183.166 24.4245 183.213 24.1633 183.213 23.9021C183.213 23.6409 183.166 23.3797 183.073 23.1185C182.979 22.9007 182.854 22.7266 182.714 22.5524C182.542 22.3783 182.371 22.2476 182.137 22.1606C181.918 22.0735 181.653 22.03 181.388 22.03C181.122 22.03 180.857 22.0735 180.639 22.1606C180.42 22.2476 180.233 22.3783 180.062 22.5524C179.921 22.7266 179.796 22.9007 179.703 23.1185C179.609 23.3797 179.578 23.6409 179.578 23.9021Z"
                                    fill="black" />
                                <path id="path188"
                                    d="M185.6 21.2028L186.661 21.2028L186.661 22.03C186.802 21.7253 187.02 21.5076 187.379 21.3334C187.691 21.1593 188.034 21.0722 188.487 21.0722C188.752 21.0722 189.017 21.1157 189.235 21.1593C189.501 21.2464 189.688 21.3769 189.906 21.5512C190.078 21.7253 190.218 21.9429 190.296 22.2043C190.437 22.4655 190.484 22.7702 190.484 23.1185L190.484 26.6014L189.423 26.6014L189.423 23.4233C189.423 23.1619 189.423 22.9443 189.329 22.7702C189.282 22.596 189.142 22.4219 189.064 22.3348C188.923 22.2043 188.799 22.1607 188.658 22.0736C188.487 22.03 188.346 22.03 188.175 22.03C187.956 22.03 187.769 22.03 187.597 22.1171C187.426 22.2043 187.238 22.2912 187.114 22.4219C186.973 22.596 186.848 22.7702 186.755 22.9879C186.708 23.2491 186.661 23.5103 186.661 23.815L186.661 26.6014L185.6 26.6014L185.6 21.2028Z"
                                    fill="black" />
                                <path id="path190"
                                    d="M192.075 21.856C192.387 21.5948 192.699 21.377 193.089 21.2465C193.495 21.1158 193.854 21.0722 194.244 21.0722C194.649 21.0722 195.008 21.1158 195.273 21.2029C195.585 21.29 195.804 21.4206 196.022 21.5948C196.194 21.7689 196.334 21.9865 196.428 22.1608C196.506 22.3784 196.553 22.6396 196.553 22.8572L196.553 25.6003C196.553 25.8179 196.553 25.992 196.553 26.1227C196.553 26.2967 196.553 26.4274 196.6 26.6015L195.663 26.6015C195.617 26.2967 195.617 26.0355 195.617 25.7743C195.351 26.1227 195.086 26.3839 194.774 26.5145C194.478 26.6451 194.119 26.7322 193.666 26.7322C193.448 26.7322 193.183 26.6886 192.964 26.6015C192.746 26.5579 192.512 26.471 192.34 26.2967C192.169 26.1662 192.028 25.992 191.95 25.8179C191.857 25.6002 191.763 25.3825 191.763 25.1213C191.763 24.7729 191.857 24.4682 192.028 24.2505C192.169 23.9893 192.387 23.8151 192.652 23.641C192.964 23.5103 193.276 23.4234 193.635 23.3362C193.978 23.2927 194.384 23.2491 194.821 23.2491L195.585 23.2491L195.585 23.0315C195.585 22.9008 195.539 22.7267 195.492 22.596C195.445 22.4655 195.351 22.3348 195.273 22.2477C195.133 22.1172 195.008 22.0301 194.821 21.9865C194.696 21.8995 194.478 21.8995 194.244 21.8995C194.072 21.8995 193.9 21.8995 193.713 21.943C193.588 21.9865 193.448 22.0301 193.323 22.0736C193.183 22.1172 193.089 22.2043 193.011 22.2913C192.871 22.3348 192.793 22.422 192.699 22.5091L192.075 21.856ZM195.008 23.9893C194.774 23.9893 194.509 23.9893 194.244 24.0329C193.978 24.0763 193.76 24.1198 193.542 24.207C193.323 24.2505 193.183 24.381 193.058 24.5117C192.871 24.6424 192.824 24.8165 192.824 25.0341C192.824 25.3389 192.918 25.5567 193.136 25.6872C193.354 25.8179 193.635 25.905 194.025 25.905C194.29 25.905 194.556 25.8615 194.743 25.7743C194.961 25.6872 195.086 25.5567 195.227 25.3825C195.351 25.2519 195.445 25.0777 195.492 24.9036C195.539 24.6858 195.585 24.5117 195.585 24.3376L195.585 23.9893L195.008 23.9893Z"
                                    fill="black" />
                                <path id="path192"
                                    d="M198.144 26.6014L199.164 26.6014L199.164 17.981L198.144 17.981L198.144 26.6014Z"
                                    fill="black" />
                            </g>
                        </g>
                    </g>
                </g>
            </g>
        </g>
    </g>
</svg>
