<svg width="53" height="19" viewBox="0 0 53 19" fill="none" xmlns="http://www.w3.org/2000/svg">
    <g id="Primary Wordmark - Black">
        <path
            d="M52.084 13.8436V18.2082C52.084 18.2378 52.0602 18.2556 52.0364 18.2556C48.9344 18.2378 46.2721 16.3368 45.137 13.6482C44.9885 13.2928 44.8637 12.9257 44.7686 12.5407C44.626 11.9663 44.5487 11.3622 44.5487 10.7404V10.0475C44.5487 10.0179 44.5249 10.0001 44.5012 10.0001H42.4688C42.445 10.0001 42.4212 9.97641 42.4212 9.95273V5.59401C42.4212 5.56439 42.445 5.54663 42.4688 5.54663H44.5012C44.5309 5.54663 44.5487 5.52294 44.5487 5.49925V0.305504C44.5487 0.275893 44.5725 0.258126 44.5962 0.258126H48.97C48.9997 0.258126 49.0176 0.281815 49.0176 0.305504V5.49925C49.0176 5.52886 49.0413 5.54663 49.0651 5.54663H51.0975C51.1272 5.54663 51.145 5.57032 51.145 5.59401V9.95273C51.145 9.98234 51.1213 10.0001 51.0975 10.0001H49.0651C49.0354 10.0001 49.0176 10.0238 49.0176 10.0475V10.7404C49.0176 12.4045 50.3666 13.7666 52.0305 13.7903C52.0602 13.7962 52.084 13.8199 52.084 13.8436Z"
            fill="#6A13F4" />
        <path
            d="M44.3229 13.8436V18.2556C40.169 18.2556 36.7876 14.8859 36.7876 10.7463V5.59401C36.7876 5.56439 36.8114 5.54663 36.8351 5.54663H41.2089C41.2386 5.54663 41.2565 5.57032 41.2565 5.59401V10.7463C41.2565 12.3986 42.6233 13.7488 44.2694 13.7962C44.305 13.7962 44.3229 13.814 44.3229 13.8436Z"
            fill="#6A13F4" />
        <path
            d="M39.022 0.258126C40.2106 0.258126 41.1733 1.21752 41.1733 2.40788C41.1733 3.59231 40.2106 4.55762 39.022 4.55762C37.8335 4.55762 36.8648 3.59823 36.8648 2.40788C36.8648 1.21752 37.8335 0.258126 39.022 0.258126Z"
            fill="#6A13F4" />
        <path
            d="M35.6823 16.1059V18.2675C35.6823 18.2911 35.6585 18.3148 35.6347 18.3148H31.255C31.2253 18.3148 31.2074 18.2911 31.2074 18.2675V16.1059C31.2074 14.6372 30.1615 13.4113 28.771 13.1211C28.7591 13.1152 28.7412 13.1329 28.7412 13.1448V18.2675C28.7412 18.2911 28.7175 18.3148 28.6937 18.3148H24.314C24.2902 18.3148 24.2664 18.2911 24.2664 18.2675V0.305504C24.2664 0.275893 24.2902 0.258126 24.314 0.258126H28.6937C28.7234 0.258126 28.7412 0.281815 28.7412 0.305504V8.51364C28.7412 8.5314 28.7531 8.54325 28.771 8.53732C30.1497 8.25306 31.1896 7.04494 31.2134 5.59993C31.2134 5.57032 31.2372 5.55255 31.2609 5.55255H35.6347C35.6644 5.55255 35.6823 5.57624 35.6823 5.59993C35.6704 7.64308 34.8325 9.4908 33.4954 10.8351C34.8503 12.1913 35.6823 14.0568 35.6823 16.1059Z"
            fill="#6A13F4" />
        <path
            d="M23.0066 5.59401V18.2675C23.0066 18.2911 22.9828 18.3148 22.959 18.3148H18.5793C18.5496 18.3148 18.5318 18.2911 18.5318 18.2675V5.59401C18.5318 5.56439 18.5555 5.54663 18.5793 5.54663H22.959C22.9828 5.54663 23.0066 5.57032 23.0066 5.59401Z"
            fill="#6A13F4" />
        <path
            d="M20.7365 0.258126C21.925 0.258126 22.8937 1.21752 22.8937 2.40788C22.8937 3.59231 21.931 4.55762 20.7365 4.55762C19.548 4.55762 18.5793 3.59823 18.5793 2.40788C18.5793 1.21752 19.548 0.258126 20.7365 0.258126Z"
            fill="#6A13F4" />
        <path
            d="M17.266 0.275893V18.2438C17.266 18.2734 17.2422 18.2911 17.2184 18.2911H12.8446C12.8149 18.2911 12.7971 18.2675 12.7971 18.2438V0.275893C12.7971 0.246282 12.8209 0.228516 12.8446 0.228516H17.2184C17.2422 0.228516 17.266 0.246282 17.266 0.275893Z"
            fill="#6A13F4" />
        <path
            d="M11.5135 16.0763V18.2378C11.5135 18.2675 11.4897 18.2852 11.466 18.2852H7.08622C7.0565 18.2852 7.03867 18.2615 7.03867 18.2378V16.0763C7.03867 14.6076 5.99277 13.3817 4.60219 13.0915C4.5903 13.0856 4.57247 13.0974 4.57247 13.1152V18.2378C4.57247 18.2675 4.5487 18.2852 4.52493 18.2852H0.145198C0.115484 18.2852 0.0976562 18.2615 0.0976562 18.2378V0.275893C0.0976562 0.246282 0.121427 0.228516 0.145198 0.228516H4.52493C4.5487 0.228516 4.57247 0.252204 4.57247 0.275893V8.48403C4.57247 8.49587 4.58436 8.51364 4.60219 8.50771C5.98088 8.22345 7.02085 7.01533 7.04462 5.57032C7.04462 5.54663 7.06839 5.52294 7.09216 5.52294H11.4719C11.5016 5.52294 11.5194 5.54663 11.5194 5.57032C11.5075 7.60754 10.6696 9.46118 9.33254 10.8055C10.6815 12.1617 11.5135 14.0213 11.5135 16.0763Z"
            fill="#6A13F4" />
    </g>
</svg>
