<svg width="26" height="25" viewBox="0 0 26 25" fill="none" xmlns="http://www.w3.org/2000/svg">
    <path id="klikit Brandmark - Purple"
        d="M8.80455 18.3788C7.42192 18.3788 6.6956 17.8363 7.52693 16.3399L11.5961 9.29547C12.2786 8.12286 13.0837 7.75533 13.95 9.13796L18.0542 16.2611L18.0454 16.2524C18.9555 17.8188 18.2292 18.3788 16.8203 18.3788H16.8291H8.80455ZM25.9037 18.7989C25.9037 18.6589 25.8949 18.5538 25.8862 18.4838C25.8774 18.4226 25.8337 18.3788 25.7724 18.3788H20.7582C19.9356 18.3788 19.4981 18.0638 19.9794 17.1712L20.4694 16.3224C21.7733 14.0734 21.7733 11.2907 20.4782 9.0417L17.0478 3.08238C15.6039 0.570896 12.3661 -0.286686 9.88965 1.21846C9.76714 1.28846 9.67963 1.35847 9.61838 1.40222C9.57462 1.43723 9.55712 1.49848 9.58337 1.55099L12.0949 5.9089C12.5062 6.63522 12.4274 7.16902 11.351 7.16902H10.4497C7.85071 7.16902 5.44423 8.55165 4.14036 10.8094L0.701284 16.7599C-0.751354 19.2714 0.123729 22.5005 2.67022 23.8831C2.79273 23.9531 2.89774 23.9969 2.959 24.0319C3.0115 24.0581 3.07276 24.0319 3.10776 23.9881L5.6105 19.6477C6.03054 18.9126 6.53809 18.7026 7.08064 19.6477L7.53568 20.4265C8.83955 22.6755 11.2373 24.0669 13.845 24.0669H20.7494C23.6547 24.0756 25.9912 21.7041 25.9037 18.7989Z"
        fill="#7500FF" />
</svg>
