<svg width="24" height="25" viewBox="0 0 24 25" fill="none" xmlns="http://www.w3.org/2000/svg">
<rect y="0.5" width="24" height="24" rx="12" fill="#FEECEF"/>
<path d="M12 10.5H12.0067M11.3333 12.5H12V15.1667H12.6667M6 12.5C6 13.2879 6.15519 14.0681 6.45672 14.7961C6.75825 15.5241 7.20021 16.1855 7.75736 16.7426C8.31451 17.2998 8.97595 17.7417 9.7039 18.0433C10.4319 18.3448 11.2121 18.5 12 18.5C12.7879 18.5 13.5681 18.3448 14.2961 18.0433C15.0241 17.7417 15.6855 17.2998 16.2426 16.7426C16.7998 16.1855 17.2417 15.5241 17.5433 14.7961C17.8448 14.0681 18 13.2879 18 12.5C18 10.9087 17.3679 9.38258 16.2426 8.25736C15.1174 7.13214 13.5913 6.5 12 6.5C10.4087 6.5 8.88258 7.13214 7.75736 8.25736C6.63214 9.38258 6 10.9087 6 12.5Z" stroke="#F43F5E" stroke-width="1.5" stroke-linecap="round" stroke-linejoin="round"/>
</svg>
