<svg width="16" height="17" viewBox="0 0 16 17" fill="none" xmlns="http://www.w3.org/2000/svg">
    <g id="Building Bank">
        <path id="Shape"
            d="M7.29198 2.44638C7.71018 2.12679 8.29058 2.1268 8.70877 2.4464L13.6713 6.23887C14.3034 6.72192 13.9636 7.73048 13.1698 7.73431H2.83066C2.03687 7.73048 1.69712 6.7219 2.32921 6.23886L7.29198 2.44638ZM8 5.98431C8.41421 5.98431 8.75 5.64853 8.75 5.23431C8.75 4.8201 8.41421 4.48431 8 4.48431C7.58579 4.48431 7.25 4.8201 7.25 5.23431C7.25 5.64853 7.58579 5.98431 8 5.98431ZM3.5 8.73431V11.7343H5V8.73431H3.5ZM6 8.73431V11.7343H7.5V8.73431H6ZM8.5 8.73431V11.7343H10V8.73431H8.5ZM11 8.73431V11.7343H12.5V8.73431H11ZM2 13.9843C2 13.294 2.55964 12.7343 3.25 12.7343H12.75C13.4404 12.7343 14 13.294 14 13.9843V14.2343C14 14.5105 13.7761 14.7343 13.5 14.7343H2.5C2.22386 14.7343 2 14.5105 2 14.2343V13.9843Z"
            fill="#757575" />
    </g>
</svg>
