<svg width="21" height="21" viewBox="0 0 21 21" fill="none" xmlns="http://www.w3.org/2000/svg">
<path d="M10.5 0C4.704 0 0 4.704 0 10.5C0 16.296 4.704 21 10.5 21C16.296 21 21 16.296 21 10.5C21 4.704 16.296 0 10.5 0ZM10.5 18.9C5.859 18.9 2.1 15.141 2.1 10.5C2.1 8.5575 2.7615 6.7725 3.8745 5.355L15.645 17.1255C14.2275 18.2385 12.4425 18.9 10.5 18.9ZM17.1255 15.645L5.355 3.8745C6.7725 2.7615 8.5575 2.1 10.5 2.1C15.141 2.1 18.9 5.859 18.9 10.5C18.9 12.4425 18.2385 14.2275 17.1255 15.645Z" fill="black"/>
</svg>
