<svg width="28" height="29" viewBox="0 0 28 29" fill="none" xmlns="http://www.w3.org/2000/svg">
    <g id="icon-set">
        <path id="Vector"
            d="M10.4999 13.1048V7.27148C10.4999 6.34323 10.8687 5.45299 11.5251 4.79661C12.1814 4.14023 13.0717 3.77148 13.9999 3.77148C14.9282 3.77148 15.8184 4.14023 16.4748 4.79661C17.1312 5.45299 17.4999 6.34323 17.4999 7.27148V13.1048M7.3861 9.60482H20.6149C20.9514 9.60478 21.2838 9.67749 21.5895 9.81797C21.8952 9.95845 22.1669 10.1634 22.386 10.4187C22.6051 10.674 22.7664 10.9737 22.8588 11.2972C22.9512 11.6207 22.9726 11.9603 22.9214 12.2928L21.4573 21.8035C21.3302 22.63 20.9113 23.3837 20.2766 23.9281C19.6419 24.4725 18.8332 24.7717 17.9969 24.7715H10.0029C9.1669 24.7714 8.3585 24.4721 7.724 23.9277C7.08951 23.3833 6.67085 22.6298 6.54377 21.8035L5.0796 12.2928C5.02847 11.9603 5.04984 11.6207 5.14226 11.2972C5.23468 10.9737 5.39596 10.674 5.61504 10.4187C5.83412 10.1634 6.10582 9.95845 6.41152 9.81797C6.71721 9.67749 7.04967 9.60478 7.3861 9.60482Z"
            stroke="#2E2E2E" stroke-width="2" stroke-linecap="round" stroke-linejoin="round" />
    </g>
</svg>
