<svg width="24" height="24" viewBox="0 0 24 24" fill="none" xmlns="http://www.w3.org/2000/svg">
    <g id="Calendar">
        <path id="Shape"
            d="M3 8.49036V17.7404C3 19.5353 4.45507 20.9904 6.25 20.9904H17.75C19.5449 20.9904 21 19.5353 21 17.7404V8.49036H3ZM16.75 14.9904C17.4404 14.9904 18 15.55 18 16.2404C18 16.9307 17.4404 17.4904 16.75 17.4904C16.0596 17.4904 15.5 16.9307 15.5 16.2404C15.5 15.55 16.0596 14.9904 16.75 14.9904ZM12 14.9904C12.6904 14.9904 13.25 15.55 13.25 16.2404C13.25 16.9307 12.6904 17.4904 12 17.4904C11.3096 17.4904 10.75 16.9307 10.75 16.2404C10.75 15.55 11.3096 14.9904 12 14.9904ZM16.75 10.4904C17.4404 10.4904 18 11.05 18 11.7404C18 12.4307 17.4404 12.9904 16.75 12.9904C16.0596 12.9904 15.5 12.4307 15.5 11.7404C15.5 11.05 16.0596 10.4904 16.75 10.4904ZM12 10.4904C12.6904 10.4904 13.25 11.05 13.25 11.7404C13.25 12.4307 12.6904 12.9904 12 12.9904C11.3096 12.9904 10.75 12.4307 10.75 11.7404C10.75 11.05 11.3096 10.4904 12 10.4904ZM7.25 10.4904C7.94036 10.4904 8.5 11.05 8.5 11.7404C8.5 12.4307 7.94036 12.9904 7.25 12.9904C6.55964 12.9904 6 12.4307 6 11.7404C6 11.05 6.55964 10.4904 7.25 10.4904ZM6.25 2.99036C4.45507 2.99036 3 4.44543 3 6.24036V6.99036H21V6.24036C21 4.44543 19.5449 2.99036 17.75 2.99036H6.25Z"
            fill="#575757" />
    </g>
</svg>
