<svg width="20" height="20" viewBox="0 0 20 20" fill="none" xmlns="http://www.w3.org/2000/svg">
    <g id="icon-set">
        <path id="Vector"
            d="M13.3333 6.66732V5.00065C13.3333 4.55862 13.1577 4.1347 12.8451 3.82214C12.5325 3.50958 12.1086 3.33398 11.6666 3.33398H4.99992C4.55789 3.33398 4.13397 3.50958 3.82141 3.82214C3.50885 4.1347 3.33325 4.55862 3.33325 5.00065V11.6673C3.33325 12.1093 3.50885 12.5333 3.82141 12.8458C4.13397 13.1584 4.55789 13.334 4.99992 13.334H6.66659M6.66659 8.33398C6.66659 7.89196 6.84218 7.46803 7.15474 7.15547C7.4673 6.84291 7.89122 6.66732 8.33325 6.66732H14.9999C15.4419 6.66732 15.8659 6.84291 16.1784 7.15547C16.491 7.46803 16.6666 7.89196 16.6666 8.33398V15.0007C16.6666 15.4427 16.491 15.8666 16.1784 16.1792C15.8659 16.4917 15.4419 16.6673 14.9999 16.6673H8.33325C7.89122 16.6673 7.4673 16.4917 7.15474 16.1792C6.84218 15.8666 6.66659 15.4427 6.66659 15.0007V8.33398Z"
            stroke="#4A4A4A" stroke-width="1.5" stroke-linecap="round" stroke-linejoin="round" />
    </g>
</svg>
