<svg width="16" height="16" viewBox="0 0 16 16" fill="none" xmlns="http://www.w3.org/2000/svg">
    <g id="icon-set">
        <path id="Vector"
            d="M8.66663 11.3333H2.66663C3.02992 11.1276 3.33983 10.8395 3.57142 10.4921C3.803 10.1447 3.94979 9.7478 3.99996 9.33333V7.33333C4.03967 6.48738 4.30883 5.66818 4.77859 4.96353C5.24836 4.25888 5.90102 3.69535 6.66663 3.33333C6.66663 2.97971 6.8071 2.64057 7.05715 2.39052C7.3072 2.14048 7.64634 2 7.99996 2C8.35358 2 8.69272 2.14048 8.94277 2.39052C9.19282 2.64057 9.33329 2.97971 9.33329 3.33333C10.0989 3.69535 10.7516 4.25888 11.2213 4.96353C11.6911 5.66818 11.9603 6.48738 12 7.33333V8.66667M5.99996 11.3333V12C5.99987 12.3318 6.08231 12.6583 6.23985 12.9503C6.3974 13.2423 6.6251 13.4905 6.90246 13.6725C7.17981 13.8546 7.49809 13.9648 7.82863 13.9932C8.15918 14.0216 8.4916 13.9674 8.79596 13.8353M14.6666 14.6667L11.3333 11.3333M11.3333 14.6667L14.6666 11.3333"
            stroke="#F43F5E" stroke-width="1.5" stroke-linecap="round" stroke-linejoin="round" />
    </g>
</svg>
