<svg width="16" height="16" viewBox="0 0 16 16" fill="none" xmlns="http://www.w3.org/2000/svg">
    <g id="Money">
        <path id="Shape"
            d="M1 4.25006C1 3.55971 1.55964 3.00006 2.25 3.00006H11.75C12.4404 3.00006 13 3.55971 13 4.25006V9.75006C13 10.4404 12.4404 11.0001 11.75 11.0001H2.25C1.55964 11.0001 1 10.4404 1 9.75006V4.25006ZM4 4.50006V4.00006H3V4.50006C3 4.7762 2.77614 5.00006 2.5 5.00006H2V6.00006H2.5C3.32843 6.00006 4 5.32849 4 4.50006ZM9 7.00006C9 5.89549 8.10457 5.00006 7 5.00006C5.89543 5.00006 5 5.89549 5 7.00006C5 8.10463 5.89543 9.00006 7 9.00006C8.10457 9.00006 9 8.10463 9 7.00006ZM11 4.00006H10V4.50006C10 5.32849 10.6716 6.00006 11.5 6.00006H12V5.00006H11.5C11.2239 5.00006 11 4.7762 11 4.50006V4.00006ZM4 9.50006C4 8.67163 3.32843 8.00006 2.5 8.00006H2V9.00006H2.5C2.77614 9.00006 3 9.22392 3 9.50006V10.0001H4V9.50006ZM11 10.0001V9.50006C11 9.22392 11.2239 9.00006 11.5 9.00006H12V8.00006H11.5C10.6716 8.00006 10 8.67163 10 9.50006V10.0001H11ZM4.5 13.0001C3.8334 13.0001 3.26836 12.5652 3.07304 11.9637C3.21179 11.9876 3.35444 12.0001 3.5 12.0001H11.75C12.9926 12.0001 14 10.9927 14 9.75006V5.08541C14.5826 5.29133 15 5.84695 15 6.50006V9.75006C15 11.545 13.5449 13.0001 11.75 13.0001H4.5Z"
            fill="#757575" />
    </g>
</svg>
