<svg width="16" height="16" viewBox="0 0 16 16" fill="none" xmlns="http://www.w3.org/2000/svg">
    <g id="Payment">
        <path id="Shape"
            d="M3.5 3.00006C2.11929 3.00006 1 4.11935 1 5.50006V6.00006H15V5.50006C15 4.11935 13.8807 3.00006 12.5 3.00006H3.5ZM15 7.00006H1V10.5001C1 11.8808 2.11929 13.0001 3.5 13.0001H12.5C13.8807 13.0001 15 11.8808 15 10.5001V7.00006ZM10.5 10.0001H12.5C12.7761 10.0001 13 10.2239 13 10.5001C13 10.7762 12.7761 11.0001 12.5 11.0001H10.5C10.2239 11.0001 10 10.7762 10 10.5001C10 10.2239 10.2239 10.0001 10.5 10.0001Z"
            fill="#6A13F4" />
    </g>
</svg>
