<svg width="12" height="15" viewBox="0 0 12 15" fill="none" xmlns="http://www.w3.org/2000/svg">
    <path id="Shape"
        d="M8.64735 0.972525L4.7838 4.83607C4.55854 5.06133 4.39874 5.34357 4.32147 5.65263L4.02189 6.85095C3.89161 7.37208 4.36365 7.84411 4.88477 7.71383L6.0831 7.41425C6.39215 7.33699 6.6744 7.17718 6.89966 6.95192L10.7632 3.08838C11.3475 2.5041 11.3475 1.5568 10.7632 0.972525C10.1789 0.388248 9.23162 0.388248 8.64735 0.972525ZM4.21806 4.27038L7.11292 1.37553C7.01316 1.34865 6.90825 1.33432 6.8 1.33432H1.2C0.537258 1.33432 0 1.87158 0 2.53432V12.9343C0 13.5971 0.537258 14.1343 1.2 14.1343H6.8C7.46274 14.1343 8 13.5971 8 12.9343V6.9829L7.46529 7.51761C7.1375 7.8454 6.72679 8.07794 6.27707 8.19037L5.07875 8.48995C3.97172 8.7667 2.96897 7.76395 3.24573 6.65692L3.54531 5.4586C3.65774 5.00888 3.89028 4.59817 4.21806 4.27038ZM3.2 10.9343H4.8C5.02091 10.9343 5.2 11.1134 5.2 11.3343C5.2 11.5552 5.02091 11.7343 4.8 11.7343H3.2C2.97909 11.7343 2.8 11.5552 2.8 11.3343C2.8 11.1134 2.97909 10.9343 3.2 10.9343Z"
        fill="#757575" />
</svg>
