<svg width="16" height="16" viewBox="0 0 16 16" fill="none" xmlns="http://www.w3.org/2000/svg">
    <g id="Wallet Credit Card" clip-path="url(#clip0_2856_27280)">
        <path id="Shape"
            d="M9.36803 1.22166C8.93691 0.869577 8.30127 0.937284 7.95399 1.37228L5.05775 5.00007H6.33734L8.73549 1.99619L9.50497 2.6246L7.57422 5.0009H8.86269L10.2795 3.25714L11.9979 4.66054L11.6999 5.00007H12C12.3064 5.00007 12.6021 5.046 12.8805 5.13134C13.1006 4.71967 13.0082 4.19444 12.6305 3.88601L9.36803 1.22166ZM3 5.50006C3 5.22392 3.22386 5.00006 3.5 5.00006H4.05762L4.85254 4.00006H3.5C2.67157 4.00006 2 4.67163 2 5.50006V11.5001C2 12.8808 3.11929 14.0001 4.5 14.0001H12C13.1046 14.0001 14 13.1046 14 12.0001V8.00006C14 6.89549 13.1046 6.00006 12 6.00006H3.5C3.22386 6.00006 3 5.7762 3 5.50006ZM10.5 10.0001H11.5C11.7761 10.0001 12 10.2239 12 10.5001C12 10.7762 11.7761 11.0001 11.5 11.0001H10.5C10.2239 11.0001 10 10.7762 10 10.5001C10 10.2239 10.2239 10.0001 10.5 10.0001Z"
            fill="#757575" />
    </g>
    <defs>
        <clipPath id="clip0_2856_27280">
            <rect width="16" height="16" fill="white" />
        </clipPath>
    </defs>
</svg>
