<svg width="16" height="17" viewBox="0 0 16 17" fill="none" xmlns="http://www.w3.org/2000/svg">
<g id="Icon">
<path id="Icon_2" d="M10 3.83301V5.16634M10 7.83301V9.16634M10 11.833V13.1663M3.33333 3.83301C2.59695 3.83301 2 4.42996 2 5.16634V7.16634C2.73638 7.16634 3.33333 7.76329 3.33333 8.49967C3.33333 9.23605 2.73638 9.83301 2 9.83301V11.833C2 12.5694 2.59695 13.1663 3.33333 13.1663H12.6667C13.403 13.1663 14 12.5694 14 11.833V9.83301C13.2636 9.83301 12.6667 9.23605 12.6667 8.49967C12.6667 7.76329 13.2636 7.16634 14 7.16634V5.16634C14 4.42996 13.403 3.83301 12.6667 3.83301H3.33333Z" stroke="#6A13F4" stroke-linecap="round" stroke-linejoin="round"/>
</g>
</svg>
