<svg width="20" height="20" viewBox="0 0 20 20" fill="none" xmlns="http://www.w3.org/2000/svg">
    <g id="icon-set">
        <path id="Vector"
            d="M4.1665 14.168C4.1665 14.61 4.3421 15.0339 4.65466 15.3465C4.96722 15.659 5.39114 15.8346 5.83317 15.8346C6.2752 15.8346 6.69912 15.659 7.01168 15.3465C7.32424 15.0339 7.49984 14.61 7.49984 14.168M4.1665 14.168C4.1665 13.7259 4.3421 13.302 4.65466 12.9895C4.96722 12.6769 5.39114 12.5013 5.83317 12.5013C6.2752 12.5013 6.69912 12.6769 7.01168 12.9895C7.32424 13.302 7.49984 13.7259 7.49984 14.168M4.1665 14.168H2.49984V10.8346M7.49984 14.168H12.4998M12.4998 14.168C12.4998 14.61 12.6754 15.0339 12.988 15.3465C13.3006 15.659 13.7245 15.8346 14.1665 15.8346C14.6085 15.8346 15.0325 15.659 15.345 15.3465C15.6576 15.0339 15.8332 14.61 15.8332 14.168M12.4998 14.168C12.4998 13.7259 12.6754 13.302 12.988 12.9895C13.3006 12.6769 13.7245 12.5013 14.1665 12.5013C14.6085 12.5013 15.0325 12.6769 15.345 12.9895C15.6576 13.302 15.8332 13.7259 15.8332 14.168M15.8332 14.168H17.4998V9.16797M1.6665 4.16797H10.8332V14.168M17.4998 9.16797H10.8332M17.4998 9.16797L14.9998 5.0013H10.8332M2.49984 7.5013H5.83317"
            stroke="#6A13F4" stroke-width="1.5" stroke-linecap="round" stroke-linejoin="round" />
    </g>
</svg>
