<svg width="24" height="25" viewBox="0 0 24 25" fill="none" xmlns="http://www.w3.org/2000/svg">
    <g id="icon-set">
        <path id="Vector"
            d="M16 4.5H19C19.2652 4.5 19.5196 4.60536 19.7071 4.79289C19.8946 4.98043 20 5.23478 20 5.5V19.5C20 19.7652 19.8946 20.0196 19.7071 20.2071C19.5196 20.3946 19.2652 20.5 19 20.5H16V4.5ZM16 4.5L12 8.5L8 4.5M8 4.5V20.5H5C4.73478 20.5 4.48043 20.3946 4.29289 20.2071C4.10536 20.0196 4 19.7652 4 19.5V5.5C4 5.23478 4.10536 4.98043 4.29289 4.79289C4.48043 4.60536 4.73478 4.5 5 4.5H8ZM4 7L12 14.5L20 7"
            stroke="#1C1C1C" stroke-width="1.5" stroke-linecap="round" stroke-linejoin="round" />
    </g>
</svg>
