<svg width="17" height="18" viewBox="0 0 17 18" fill="none" xmlns="http://www.w3.org/2000/svg">
    <g id="icon-set">
        <path id="Vector"
            d="M8.62488 4.99203C8.62488 5.34631 8.76561 5.68607 9.01612 5.93658C9.26663 6.18708 9.60639 6.32782 9.96066 6.32782C10.3149 6.32782 10.6547 6.18708 10.9052 5.93658C11.1557 5.68607 11.2964 5.34631 11.2964 4.99203M8.62488 4.99203C8.62488 4.63776 8.76561 4.298 9.01612 4.04749C9.26663 3.79698 9.60639 3.65625 9.96066 3.65625C10.3149 3.65625 10.6547 3.79698 10.9052 4.04749C11.1557 4.298 11.2964 4.63776 11.2964 4.99203M8.62488 4.99203H3.28174M11.2964 4.99203H13.968M4.61752 8.99939C4.61752 9.35366 4.75826 9.69342 5.00876 9.94393C5.25927 10.1944 5.59903 10.3352 5.95331 10.3352C6.30758 10.3352 6.64734 10.1944 6.89785 9.94393C7.14836 9.69342 7.28909 9.35366 7.28909 8.99939M4.61752 8.99939C4.61752 8.64512 4.75826 8.30535 5.00876 8.05485C5.25927 7.80434 5.59903 7.6636 5.95331 7.6636C6.30758 7.6636 6.64734 7.80434 6.89785 8.05485C7.14836 8.30535 7.28909 8.64512 7.28909 8.99939M4.61752 8.99939H3.28174M7.28909 8.99939H13.968M10.6286 13.0067C10.6286 13.361 10.7693 13.7008 11.0198 13.9513C11.2703 14.2018 11.6101 14.3425 11.9643 14.3425C12.3186 14.3425 12.6584 14.2018 12.9089 13.9513C13.1594 13.7008 13.3001 13.361 13.3001 13.0067M10.6286 13.0067C10.6286 12.6525 10.7693 12.3127 11.0198 12.0622C11.2703 11.8117 11.6101 11.671 11.9643 11.671C12.3186 11.671 12.6584 11.8117 12.9089 12.0622C13.1594 12.3127 13.3001 12.6525 13.3001 13.0067M10.6286 13.0067H3.28174M13.3001 13.0067H13.968"
            stroke="#2E2E2E" stroke-width="1.20221" stroke-linecap="round"
            stroke-linejoin="round" />
    </g>
</svg>
