<svg width="16" height="16" viewBox="0 0 16 16" fill="none" xmlns="http://www.w3.org/2000/svg">
<path d="M8.00016 3.00065C8.00016 3.44268 8.17576 3.8666 8.48832 4.17916C8.80088 4.49172 9.2248 4.66732 9.66683 4.66732C10.1089 4.66732 10.5328 4.49172 10.8453 4.17916C11.1579 3.8666 11.3335 3.44268 11.3335 3.00065M8.00016 3.00065C8.00016 2.55862 8.17576 2.1347 8.48832 1.82214C8.80088 1.50958 9.2248 1.33398 9.66683 1.33398C10.1089 1.33398 10.5328 1.50958 10.8453 1.82214C11.1579 2.1347 11.3335 2.55862 11.3335 3.00065M8.00016 3.00065H1.3335M11.3335 3.00065H14.6668M3.00016 8.00065C3.00016 8.44268 3.17576 8.8666 3.48832 9.17916C3.80088 9.49172 4.2248 9.66732 4.66683 9.66732C5.10886 9.66732 5.53278 9.49172 5.84534 9.17916C6.1579 8.8666 6.3335 8.44268 6.3335 8.00065M3.00016 8.00065C3.00016 7.55862 3.17576 7.1347 3.48832 6.82214C3.80088 6.50958 4.2248 6.33398 4.66683 6.33398C5.10886 6.33398 5.53278 6.50958 5.84534 6.82214C6.1579 7.1347 6.3335 7.55862 6.3335 8.00065M3.00016 8.00065H1.3335M6.3335 8.00065H14.6668M10.5002 13.0007C10.5002 13.4427 10.6758 13.8666 10.9883 14.1792C11.3009 14.4917 11.7248 14.6673 12.1668 14.6673C12.6089 14.6673 13.0328 14.4917 13.3453 14.1792C13.6579 13.8666 13.8335 13.4427 13.8335 13.0007M10.5002 13.0007C10.5002 12.5586 10.6758 12.1347 10.9883 11.8221C11.3009 11.5096 11.7248 11.334 12.1668 11.334C12.6089 11.334 13.0328 11.5096 13.3453 11.8221C13.6579 12.1347 13.8335 12.5586 13.8335 13.0007M10.5002 13.0007H1.3335M13.8335 13.0007H14.6668" stroke="#2E2E2E" stroke-width="1.5" stroke-linecap="round" stroke-linejoin="round"/>
</svg>
