<svg width="28" height="20" viewBox="0 0 28 20" fill="none" xmlns="http://www.w3.org/2000/svg">
    <g id="flags / CN">
        <rect id="Mask" width="28" height="20" rx="2" fill="white" />
        <mask id="mask0_1469_22911" style="mask-type:luminance" maskUnits="userSpaceOnUse" x="0"
            y="0" width="28" height="20">
            <rect id="Mask_2" width="28" height="20" rx="2" fill="white" />
        </mask>
        <g mask="url(#mask0_1469_22911)">
            <rect id="Mask_3" width="28" height="20" fill="#F1361D" />
            <path id="Star 2" fill-rule="evenodd" clip-rule="evenodd"
                d="M10.0728 3.10103L11.0412 3.26614L11.7675 3.92763L11.9326 2.95919L12.5941 2.23285L11.6257 2.06775L10.8994 1.40625L10.7342 2.37469L10.0728 3.10103ZM12.6668 6.48831L13.506 5.97756L14.4881 6.00027L13.9774 5.16106L14.0001 4.17891L13.1609 4.68966L12.1787 4.66694L12.6895 5.50615L12.6668 6.48831ZM11.5284 11.9711L10.7075 12.5109L10.6959 11.5285L10.1562 10.7076L11.1385 10.6961L11.9594 10.1563L11.971 11.1387L12.5107 11.9596L11.5284 11.9711ZM12.2412 9.43171L13.2177 9.32348L14.0982 9.75914L13.99 8.78271L14.4256 7.90217L13.4492 8.0104L12.5687 7.57474L12.6769 8.55118L12.2412 9.43171Z"
                fill="#FFDC42" />
            <path id="Star 8" fill-rule="evenodd" clip-rule="evenodd"
                d="M6.6665 8.22602L4.31536 9.90208L5.18286 7.14808L2.86228 5.42995L5.74956 5.40395L6.6665 2.66602L7.58345 5.40395L10.4707 5.42995L8.15015 7.14808L9.01764 9.90208L6.6665 8.22602Z"
                fill="#FFDC42" />
        </g>
    </g>
</svg>
