<svg width="28" height="20" viewBox="0 0 28 20" fill="none" xmlns="http://www.w3.org/2000/svg">
    <g id="flags / US">
        <rect id="Mask" width="28" height="20" rx="2" fill="white" />
        <mask id="mask0_1899_21968" style="mask-type:luminance" maskUnits="userSpaceOnUse" x="0"
            y="0" width="28" height="20">
            <rect id="Mask_2" width="28" height="20" rx="2" fill="white" />
        </mask>
        <g mask="url(#mask0_1899_21968)">
            <path id="Rectangle 511" fill-rule="evenodd" clip-rule="evenodd"
                d="M28 0H0V1.33333H28V0ZM28 2.66667H0V4H28V2.66667ZM0 5.33333H28V6.66667H0V5.33333ZM28 8H0V9.33333H28V8ZM0 10.6667H28V12H0V10.6667ZM28 13.3333H0V14.6667H28V13.3333ZM0 16H28V17.3333H0V16ZM28 18.6667H0V20H28V18.6667Z"
                fill="#D02F44" />
            <rect id="Rectangle 511_2" width="12" height="9.33333" fill="#46467F" />
            <g id="Oval 43" filter="url(#filter0_d_1899_21968)">
                <path fill-rule="evenodd" clip-rule="evenodd"
                    d="M2.66683 2.00065C2.66683 2.36884 2.36835 2.66732 2.00016 2.66732C1.63197 2.66732 1.3335 2.36884 1.3335 2.00065C1.3335 1.63246 1.63197 1.33398 2.00016 1.33398C2.36835 1.33398 2.66683 1.63246 2.66683 2.00065ZM5.3335 2.00065C5.3335 2.36884 5.03502 2.66732 4.66683 2.66732C4.29864 2.66732 4.00016 2.36884 4.00016 2.00065C4.00016 1.63246 4.29864 1.33398 4.66683 1.33398C5.03502 1.33398 5.3335 1.63246 5.3335 2.00065ZM7.3335 2.66732C7.70169 2.66732 8.00016 2.36884 8.00016 2.00065C8.00016 1.63246 7.70169 1.33398 7.3335 1.33398C6.96531 1.33398 6.66683 1.63246 6.66683 2.00065C6.66683 2.36884 6.96531 2.66732 7.3335 2.66732ZM10.6668 2.00065C10.6668 2.36884 10.3684 2.66732 10.0002 2.66732C9.63197 2.66732 9.3335 2.36884 9.3335 2.00065C9.3335 1.63246 9.63197 1.33398 10.0002 1.33398C10.3684 1.33398 10.6668 1.63246 10.6668 2.00065ZM3.3335 4.00065C3.70169 4.00065 4.00016 3.70217 4.00016 3.33398C4.00016 2.96579 3.70169 2.66732 3.3335 2.66732C2.96531 2.66732 2.66683 2.96579 2.66683 3.33398C2.66683 3.70217 2.96531 4.00065 3.3335 4.00065ZM6.66683 3.33398C6.66683 3.70217 6.36835 4.00065 6.00016 4.00065C5.63197 4.00065 5.3335 3.70217 5.3335 3.33398C5.3335 2.96579 5.63197 2.66732 6.00016 2.66732C6.36835 2.66732 6.66683 2.96579 6.66683 3.33398ZM8.66683 4.00065C9.03502 4.00065 9.3335 3.70217 9.3335 3.33398C9.3335 2.96579 9.03502 2.66732 8.66683 2.66732C8.29864 2.66732 8.00016 2.96579 8.00016 3.33398C8.00016 3.70217 8.29864 4.00065 8.66683 4.00065ZM10.6668 4.66732C10.6668 5.03551 10.3684 5.33398 10.0002 5.33398C9.63197 5.33398 9.3335 5.03551 9.3335 4.66732C9.3335 4.29913 9.63197 4.00065 10.0002 4.00065C10.3684 4.00065 10.6668 4.29913 10.6668 4.66732ZM7.3335 5.33398C7.70169 5.33398 8.00016 5.03551 8.00016 4.66732C8.00016 4.29913 7.70169 4.00065 7.3335 4.00065C6.96531 4.00065 6.66683 4.29913 6.66683 4.66732C6.66683 5.03551 6.96531 5.33398 7.3335 5.33398ZM5.3335 4.66732C5.3335 5.03551 5.03502 5.33398 4.66683 5.33398C4.29864 5.33398 4.00016 5.03551 4.00016 4.66732C4.00016 4.29913 4.29864 4.00065 4.66683 4.00065C5.03502 4.00065 5.3335 4.29913 5.3335 4.66732ZM2.00016 5.33398C2.36835 5.33398 2.66683 5.03551 2.66683 4.66732C2.66683 4.29913 2.36835 4.00065 2.00016 4.00065C1.63197 4.00065 1.3335 4.29913 1.3335 4.66732C1.3335 5.03551 1.63197 5.33398 2.00016 5.33398ZM4.00016 6.00065C4.00016 6.36884 3.70169 6.66732 3.3335 6.66732C2.96531 6.66732 2.66683 6.36884 2.66683 6.00065C2.66683 5.63246 2.96531 5.33398 3.3335 5.33398C3.70169 5.33398 4.00016 5.63246 4.00016 6.00065ZM6.00016 6.66732C6.36835 6.66732 6.66683 6.36884 6.66683 6.00065C6.66683 5.63246 6.36835 5.33398 6.00016 5.33398C5.63197 5.33398 5.3335 5.63246 5.3335 6.00065C5.3335 6.36884 5.63197 6.66732 6.00016 6.66732ZM9.3335 6.00065C9.3335 6.36884 9.03502 6.66732 8.66683 6.66732C8.29864 6.66732 8.00016 6.36884 8.00016 6.00065C8.00016 5.63246 8.29864 5.33398 8.66683 5.33398C9.03502 5.33398 9.3335 5.63246 9.3335 6.00065ZM10.0002 8.00065C10.3684 8.00065 10.6668 7.70217 10.6668 7.33398C10.6668 6.96579 10.3684 6.66732 10.0002 6.66732C9.63197 6.66732 9.3335 6.96579 9.3335 7.33398C9.3335 7.70217 9.63197 8.00065 10.0002 8.00065ZM8.00016 7.33398C8.00016 7.70217 7.70169 8.00065 7.3335 8.00065C6.96531 8.00065 6.66683 7.70217 6.66683 7.33398C6.66683 6.96579 6.96531 6.66732 7.3335 6.66732C7.70169 6.66732 8.00016 6.96579 8.00016 7.33398ZM4.66683 8.00065C5.03502 8.00065 5.3335 7.70217 5.3335 7.33398C5.3335 6.96579 5.03502 6.66732 4.66683 6.66732C4.29864 6.66732 4.00016 6.96579 4.00016 7.33398C4.00016 7.70217 4.29864 8.00065 4.66683 8.00065ZM2.66683 7.33398C2.66683 7.70217 2.36835 8.00065 2.00016 8.00065C1.63197 8.00065 1.3335 7.70217 1.3335 7.33398C1.3335 6.96579 1.63197 6.66732 2.00016 6.66732C2.36835 6.66732 2.66683 6.96579 2.66683 7.33398Z"
                    fill="url(#paint0_linear_1899_21968)" />
            </g>
        </g>
    </g>
    <defs>
        <filter id="filter0_d_1899_21968" x="1.3335" y="1.33398" width="9.3335" height="7.66602"
            filterUnits="userSpaceOnUse" color-interpolation-filters="sRGB">
            <feFlood flood-opacity="0" result="BackgroundImageFix" />
            <feColorMatrix in="SourceAlpha" type="matrix"
                values="0 0 0 0 0 0 0 0 0 0 0 0 0 0 0 0 0 0 127 0" result="hardAlpha" />
            <feOffset dy="1" />
            <feColorMatrix type="matrix" values="0 0 0 0 0 0 0 0 0 0 0 0 0 0 0 0 0 0 0.06 0" />
            <feBlend mode="normal" in2="BackgroundImageFix"
                result="effect1_dropShadow_1899_21968" />
            <feBlend mode="normal" in="SourceGraphic" in2="effect1_dropShadow_1899_21968"
                result="shape" />
        </filter>
        <linearGradient id="paint0_linear_1899_21968" x1="1.3335" y1="1.33398" x2="1.3335"
            y2="8.00065" gradientUnits="userSpaceOnUse">
            <stop stop-color="white" />
            <stop offset="1" stop-color="#F0F0F0" />
        </linearGradient>
    </defs>
</svg>
