<svg width="26" height="32" viewBox="0 0 26 32" fill="none" xmlns="http://www.w3.org/2000/svg">
    <g id="Gerbang_Pembayaran_Nasional_logo 1" clip-path="url(#clip0_1125_4113)">
        <path id="path2" fill-rule="evenodd" clip-rule="evenodd"
            d="M18.2692 23.4919V30.8817C18.2692 31.9648 19.2355 31.9152 20.2201 31.8169C20.2643 31.8142 20.2712 31.8054 20.2719 31.7682C20.2719 31.7469 20.3184 26.8818 20.3184 26.7631C20.6001 27.0341 22.7643 30.1627 23.2167 30.7808C24.0779 31.9559 23.7855 31.8426 25.5774 31.8426C25.8903 31.8426 25.9018 31.7567 25.9018 31.4547V24.0648C25.9018 23.7939 25.8439 23.5929 25.7411 23.4476C25.403 22.9694 24.5166 23.0801 24.046 23.1191C23.9881 23.1244 23.9051 23.174 23.9005 23.2342C23.9005 23.793 23.9043 27.6141 23.9005 28.4421C23.7741 28.3464 23.4398 27.9072 23.3286 27.7478C22.3607 26.3531 21.3495 24.8512 20.3268 23.5335C19.8942 22.9765 19.5333 23.104 18.5943 23.104C18.2753 23.104 18.2692 23.1811 18.2692 23.4919Z"
            fill="#003662" />
        <path id="path4" fill-rule="evenodd" clip-rule="evenodd"
            d="M11.8823 31.7221V31.7133L11.925 29.1612L14.374 29.1372C16.6616 29.1638 17.7399 26.2938 16.6212 24.3775C16.2031 23.6611 15.4812 23.9967 14.1752 24.28C13.5249 24.4217 13.0695 24.3925 13.0756 24.7202C13.6178 24.907 14.1204 24.59 14.6184 25.0646C14.9604 25.3896 15.1256 26.0015 14.9604 26.6152C14.6398 27.8045 13.1518 27.5202 11.9257 27.5202C11.9257 24.335 12.2479 24.6865 10.7629 24.9867C9.54528 25.2329 9.88415 25.2046 9.88415 28.2464C9.88415 29.131 9.85521 30.0635 9.88339 30.942C9.91613 31.9887 10.8018 31.8426 11.7118 31.8426C11.7148 31.8426 11.7217 31.8426 11.7255 31.8426C11.8557 31.8443 11.8823 31.8222 11.8823 31.7221Z"
            fill="#003662" />
        <path id="path6" fill-rule="evenodd" clip-rule="evenodd"
            d="M3.18748 26.0158L3.25602 25.8918C3.46924 25.2445 4.48052 24.7778 5.08668 24.4103C5.42099 24.2075 6.96151 23.3361 7.12905 23.1404C5.2367 22.7295 3.52179 22.9969 2.29043 23.9604C1.26468 24.7627 0.66461 26.5843 0.915908 28.4669C1.14817 30.2115 2.15945 31.3086 3.64591 31.7532C5.02043 32.1641 7.69104 31.9905 8.63759 31.1687L8.66425 28.7627C8.66425 27.9976 8.80665 27.0625 8.05123 26.8756C7.23794 26.6746 5.73092 27.4769 4.78208 27.8285C4.5285 27.9223 4.4889 27.886 4.50946 28.1933L6.90745 28.2323L6.90897 29.5083C6.91887 30.1273 6.89679 30.0414 6.23961 30.1548C5.46591 30.2876 4.56429 30.2424 3.95128 29.8971C2.88136 29.294 2.63844 27.4096 3.18748 26.0158Z"
            fill="#003662" />
        <path id="path8" fill-rule="evenodd" clip-rule="evenodd"
            d="M21.5962 17.17L22.4925 17.2922C22.446 17.3374 22.4856 17.3976 22.1468 17.4392C21.9549 17.4631 21.9099 17.4552 21.7264 17.4277L21.5962 17.17ZM7.12907 23.1403C6.96154 23.3361 5.42101 24.2074 5.0867 24.4102C4.48054 24.7777 3.46926 25.2444 3.25604 25.8917L3.22177 25.9537L3.29107 25.9351C3.67487 25.8696 4.78972 25.3586 5.22225 25.1744C5.86649 24.9008 6.78487 24.3925 7.22121 24.6378C6.95392 25.0168 5.00827 25.3887 5.01512 26.2415C5.58321 26.1724 14.4037 23.4096 15.278 23.1536C16.1575 22.8968 16.9578 22.6701 17.6836 22.2371C18.174 21.9449 20.9215 19.7416 21.4309 19.3423C21.7904 19.0598 21.9465 18.88 22.545 18.7941C23.1238 18.7118 23.5647 18.7649 23.685 18.207C23.2494 18.3956 23.1626 18.4576 22.7849 18.1698C22.9128 17.9431 23.2304 17.8537 23.5594 17.8997C24.1 17.9741 23.9965 18.2026 24.2561 18.3629C24.3734 17.1736 23.1938 17.2967 23.0042 17.1851C22.8725 17.1072 22.7689 16.8946 22.5663 16.7653C22.2168 16.5413 21.6175 16.6476 21.172 16.66C20.5963 16.675 20.1531 16.5714 19.6224 16.5634C19.697 16.8264 19.8394 16.876 19.9833 17.1328C19.8127 17.2373 19.7328 17.224 19.4746 17.2657C19.2934 17.2949 19.0885 17.3356 18.9614 17.3879C18.9119 17.7403 19.4571 18.0272 19.2058 18.5444C19.0208 18.4328 13.7291 11.6407 13.3521 11.151C13.0102 10.7065 12.7048 10.3487 12.3652 9.90416C11.4194 8.66795 10.7059 8.15522 9.65803 7.11471C9.45776 6.91635 9.30469 6.71621 9.10137 6.52671L5.70429 3.22364C5.30754 2.84374 4.95268 2.51698 4.5605 2.13442L2.88899 0.48466C2.66816 0.271244 2.41229 -0.0661468 2.2775 0.0604851C2.12749 0.327033 2.18384 1.80589 2.30035 2.1601C2.50291 2.77821 2.95525 3.09169 3.31163 3.44148C4.08913 4.20393 4.82551 4.91148 5.60072 5.6757C6.67445 6.73392 7.89971 8.00556 9.00314 9.03013C9.26357 9.27189 9.95807 9.81915 9.81795 10.4683C9.623 10.4036 6.95697 7.74521 6.51453 7.33786L3.66192 4.52361C3.49972 4.37307 3.41063 4.18357 3.13953 4.18268C2.99865 4.42355 3.05196 5.78197 3.13268 6.08571C3.29107 6.68433 3.68248 6.96328 4.0008 7.27676L8.11446 11.2945C8.47694 11.6425 8.74956 11.9002 9.11203 12.3013C9.40064 12.621 9.92456 12.8991 9.83013 13.6341C9.52248 13.5606 8.71681 12.6042 8.38099 12.288L4.73641 8.7751C3.92997 7.98254 3.93074 7.88513 3.93074 8.99825C3.93074 9.98032 3.92464 10.192 4.67244 10.9588C5.85963 12.1765 6.96306 13.1683 8.31778 14.5285C9.15163 15.3653 9.84156 15.7363 9.84841 16.6422C9.58264 16.5555 6.60439 13.5685 6.14825 13.1479C5.70657 12.7397 5.18342 12.0348 4.85673 12.0171C4.69453 12.2996 4.57954 13.7208 5.38065 14.4886C6.38203 15.4485 7.5517 16.6715 8.56222 17.6057C8.83941 17.8625 9.08386 18.0963 9.35191 18.3629C9.61234 18.6214 9.8644 18.9181 9.84232 19.4919C9.56589 19.437 9.09985 18.8472 8.80819 18.563C8.45485 18.2194 8.13959 17.9272 7.77863 17.588L6.28075 16.1091C6.10408 15.9444 5.95025 15.6735 5.67002 15.7124C5.52 16.4288 5.63042 17.3427 6.0325 17.789C6.23734 18.0166 6.44752 18.1919 6.66988 18.4116L8.5706 20.2907C9.14554 20.8388 9.23083 21.0496 9.74408 21.2949C9.93751 21.3879 9.83318 21.2887 9.93675 21.4295L7.12907 23.1403Z"
            fill="#F2303E" />
        <path id="path10" fill-rule="evenodd" clip-rule="evenodd"
            d="M18.9377 11.19L18.8829 11.1218C18.6309 10.7136 17.7414 7.53981 17.449 7.30957C17.1589 7.43266 16.7872 8.42004 16.7484 8.71139C16.5778 9.98302 18.557 12.9354 17.7353 13.6456L17.0774 11.948C16.9464 11.5761 16.638 10.4417 16.4187 10.2735C16.1918 10.3452 15.6138 11.438 15.712 12.1508C15.7577 12.482 16.2451 13.8582 16.4111 14.1034C16.7317 14.5772 17.1863 15.1156 17.5427 15.5504L18.4009 16.6388C18.5326 16.8097 18.5509 16.9097 18.7695 16.9496L20.9245 12.5909C21.2139 11.8958 21.0113 11.4265 20.7943 10.8057L19.1182 5.95115C18.9507 5.47119 18.7512 4.7725 18.5562 4.35364C18.26 4.40057 18.3026 4.51746 18.0498 5.01691C17.9128 5.287 17.7856 5.52521 17.7681 5.90333C17.7414 6.4692 18.6187 8.7353 18.8517 9.42779C19.0131 9.90775 19.4106 10.741 18.9377 11.19Z"
            fill="#F2303E" />
    </g>
    <defs>
        <clipPath id="clip0_1125_4113">
            <rect width="25.2394" height="32" fill="white" transform="translate(0.760559)" />
        </clipPath>
    </defs>
</svg>
