<svg width="26" height="25" viewBox="0 0 26 25" fill="none" xmlns="http://www.w3.org/2000/svg">
    <g id="Icon">
        <path id="Icon_2"
            d="M3.625 12.5L5.70833 10.4167M5.70833 10.4167L13 3.125L20.2917 10.4167M5.70833 10.4167V20.8333C5.70833 21.4086 6.1747 21.875 6.75 21.875H9.875M20.2917 10.4167L22.375 12.5M20.2917 10.4167V20.8333C20.2917 21.4086 19.8253 21.875 19.25 21.875H16.125M9.875 21.875C10.4503 21.875 10.9167 21.4086 10.9167 20.8333V16.6667C10.9167 16.0914 11.383 15.625 11.9583 15.625H14.0417C14.617 15.625 15.0833 16.0914 15.0833 16.6667V20.8333C15.0833 21.4086 15.5497 21.875 16.125 21.875M9.875 21.875H16.125"
            stroke="#949494" stroke-linecap="round" stroke-linejoin="round" />
    </g>
</svg>
