<svg width="25" height="24" viewBox="0 0 25 24" fill="none" xmlns="http://www.w3.org/2000/svg">
    <g id="Icon">
        <g id="Icon_2">
            <path
                d="M4.25 5C4.25 4.44772 4.69772 4 5.25 4H19.25C19.8023 4 20.25 4.44772 20.25 5V7C20.25 7.55228 19.8023 8 19.25 8H5.25C4.69772 8 4.25 7.55228 4.25 7V5Z"
                stroke="#949494" stroke-linecap="round" stroke-linejoin="round" />
            <path
                d="M4.25 13C4.25 12.4477 4.69772 12 5.25 12H11.25C11.8023 12 12.25 12.4477 12.25 13V19C12.25 19.5523 11.8023 20 11.25 20H5.25C4.69772 20 4.25 19.5523 4.25 19V13Z"
                stroke="#949494" stroke-linecap="round" stroke-linejoin="round" />
            <path
                d="M16.25 13C16.25 12.4477 16.6977 12 17.25 12H19.25C19.8023 12 20.25 12.4477 20.25 13V19C20.25 19.5523 19.8023 20 19.25 20H17.25C16.6977 20 16.25 19.5523 16.25 19V13Z"
                stroke="#949494" stroke-linecap="round" stroke-linejoin="round" />
        </g>
    </g>
</svg>
