<svg width="12" height="13" viewBox="0 0 12 13" fill="none" xmlns="http://www.w3.org/2000/svg">
    <g id="icon-set">
        <path id="Vector"
            d="M6.5 10.5L10 7M6.5 10.5V7.5C6.5 7.36739 6.55268 7.24022 6.64645 7.14645C6.74022 7.05268 6.86739 7 7 7H10M6.5 10.5H3C2.73478 10.5 2.48043 10.3946 2.29289 10.2071C2.10536 10.0196 2 9.76522 2 9.5V3.5C2 3.23478 2.10536 2.98043 2.29289 2.79289C2.48043 2.60536 2.73478 2.5 3 2.5H9C9.26522 2.5 9.51957 2.60536 9.70711 2.79289C9.89464 2.98043 10 3.23478 10 3.5V7"
            stroke="#575757" stroke-linecap="round" stroke-linejoin="round" />
    </g>
</svg>
