<svg width="20" height="20" viewBox="0 0 20 20" fill="none" xmlns="http://www.w3.org/2000/svg">
    <g id="icon-set">
        <path id="Vector"
            d="M7.5 14.1667V15C7.5 15.663 7.76339 16.2989 8.23223 16.7678C8.70107 17.2366 9.33696 17.5 10 17.5C10.663 17.5 11.2989 17.2366 11.7678 16.7678C12.2366 16.2989 12.5 15.663 12.5 15V14.1667M17.5 5.60583C16.9534 4.41688 16.1596 3.35808 15.1717 2.5M2.5 5.60583C3.04612 4.41703 3.83929 3.35825 4.82667 2.5M8.33333 4.16667C8.33333 3.72464 8.50893 3.30072 8.82149 2.98816C9.13405 2.67559 9.55797 2.5 10 2.5C10.442 2.5 10.866 2.67559 11.1785 2.98816C11.4911 3.30072 11.6667 3.72464 11.6667 4.16667C12.6237 4.61919 13.4395 5.32361 14.0267 6.20442C14.6139 7.08523 14.9504 8.10923 15 9.16667V11.6667C15.0627 12.1848 15.2462 12.6809 15.5357 13.1151C15.8252 13.5493 16.2126 13.9095 16.6667 14.1667H3.33333C3.78745 13.9095 4.17484 13.5493 4.46432 13.1151C4.7538 12.6809 4.93729 12.1848 5 11.6667V9.16667C5.04963 8.10923 5.38608 7.08523 5.97329 6.20442C6.5605 5.32361 7.37633 4.61919 8.33333 4.16667Z"
            stroke="#F43F5E" stroke-width="2" stroke-linecap="round" stroke-linejoin="round" />
    </g>
</svg>
