<svg width="25" height="24" viewBox="0 0 25 24" fill="none" xmlns="http://www.w3.org/2000/svg">
    <g id="Icon">
        <path id="Icon_2"
            d="M9.25 5H7.25C6.14543 5 5.25 5.89543 5.25 7V19C5.25 20.1046 6.14543 21 7.25 21H17.25C18.3546 21 19.25 20.1046 19.25 19V7C19.25 5.89543 18.3546 5 17.25 5H15.25M9.25 5C9.25 6.10457 10.1454 7 11.25 7H13.25C14.3546 7 15.25 6.10457 15.25 5M9.25 5C9.25 3.89543 10.1454 3 11.25 3H13.25C14.3546 3 15.25 3.89543 15.25 5M12.25 12H15.25M12.25 16H15.25M9.25 12H9.26M9.25 16H9.26"
            stroke="#949494" stroke-linecap="round" />
    </g>
</svg>
