<svg width="14" height="11" viewBox="0 0 14 11" fill="none" xmlns="http://www.w3.org/2000/svg">
    <path id="Shape"
        d="M0 1.98431C0 1.29396 0.559644 0.734314 1.25 0.734314H10.75C11.4404 0.734314 12 1.29396 12 1.98431V7.48431C12 8.17467 11.4404 8.73431 10.75 8.73431H1.25C0.559644 8.73431 0 8.17467 0 7.48431V1.98431ZM3 2.23431V1.73431H2V2.23431C2 2.51046 1.77614 2.73431 1.5 2.73431H1V3.73431H1.5C2.32843 3.73431 3 3.06274 3 2.23431ZM8 4.73431C8 3.62974 7.10457 2.73431 6 2.73431C4.89543 2.73431 4 3.62974 4 4.73431C4 5.83888 4.89543 6.73431 6 6.73431C7.10457 6.73431 8 5.83888 8 4.73431ZM10 1.73431H9V2.23431C9 3.06274 9.67157 3.73431 10.5 3.73431H11V2.73431H10.5C10.2239 2.73431 10 2.51046 10 2.23431V1.73431ZM3 7.23431C3 6.40589 2.32843 5.73431 1.5 5.73431H1V6.73431H1.5C1.77614 6.73431 2 6.95817 2 7.23431V7.73431H3V7.23431ZM10 7.73431V7.23431C10 6.95817 10.2239 6.73431 10.5 6.73431H11V5.73431H10.5C9.67157 5.73431 9 6.40589 9 7.23431V7.73431H10ZM3.5 10.7343C2.8334 10.7343 2.26836 10.2995 2.07304 9.698C2.21179 9.72187 2.35444 9.73431 2.5 9.73431H10.75C11.9926 9.73431 13 8.72695 13 7.48431V2.81967C13.5826 3.02559 14 3.5812 14 4.23431V7.48431C14 9.27924 12.5449 10.7343 10.75 10.7343H3.5Z"
        fill="#757575" />
</svg>
