<svg width="16" height="17" viewBox="0 0 16 17" fill="none" xmlns="http://www.w3.org/2000/svg">
    <g id="QR Code">
        <path id="Shape"
            d="M10.4 9.16719H8.79999V10.7672H10.4V12.3672H8.79999V13.9672H10.4V12.3672H12V13.9672H13.6V12.3672H12V10.7672H13.6V9.16719H12V10.7672H10.4V9.16719ZM3.99999 4.36719H5.59999V5.96719H3.99999V4.36719ZM3.99999 2.76719C3.11634 2.76719 2.39999 3.48353 2.39999 4.36719V5.96719C2.39999 6.85084 3.11634 7.56719 3.99999 7.56719H5.59999C6.48365 7.56719 7.19999 6.85084 7.19999 5.96719V4.36719C7.19999 3.48353 6.48365 2.76719 5.59999 2.76719H3.99999ZM3.39999 4.16719C3.39999 3.94627 3.57908 3.76719 3.79999 3.76719H5.79999C6.02091 3.76719 6.19999 3.94627 6.19999 4.16719V6.16719C6.19999 6.3881 6.02091 6.56719 5.79999 6.56719H3.79999C3.57908 6.56719 3.39999 6.3881 3.39999 6.16719V4.16719ZM3.99999 10.7672H5.59999V12.3672H3.99999V10.7672ZM3.99999 9.16719C3.11634 9.16719 2.39999 9.88353 2.39999 10.7672V12.3672C2.39999 13.2508 3.11634 13.9672 3.99999 13.9672H5.59999C6.48365 13.9672 7.19999 13.2508 7.19999 12.3672V10.7672C7.19999 9.88353 6.48365 9.16719 5.59999 9.16719H3.99999ZM3.39999 10.5672C3.39999 10.3463 3.57908 10.1672 3.79999 10.1672H5.79999C6.02091 10.1672 6.19999 10.3463 6.19999 10.5672V12.5672C6.19999 12.7881 6.02091 12.9672 5.79999 12.9672H3.79999C3.57908 12.9672 3.39999 12.7881 3.39999 12.5672V10.5672ZM10.4 4.36719H12V5.96719H10.4V4.36719ZM10.4 2.76719C9.51634 2.76719 8.79999 3.48353 8.79999 4.36719V5.96719C8.79999 6.85084 9.51634 7.56719 10.4 7.56719H12C12.8836 7.56719 13.6 6.85084 13.6 5.96719V4.36719C13.6 3.48353 12.8836 2.76719 12 2.76719H10.4ZM9.79999 4.16719C9.79999 3.94627 9.97908 3.76719 10.2 3.76719H12.2C12.4209 3.76719 12.6 3.94627 12.6 4.16719V6.16719C12.6 6.3881 12.4209 6.56719 12.2 6.56719H10.2C9.97908 6.56719 9.79999 6.3881 9.79999 6.16719V4.16719Z"
            fill="#757575" />
    </g>
</svg>
