<svg width="14" height="14" viewBox="0 0 14 14" fill="none" xmlns="http://www.w3.org/2000/svg">
    <g id="icon-set">
        <path id="Vector"
            d="M7 11.084V8.75065L5.25 7.00065L8.16666 4.66732L9.33333 6.41732H11.0833M1.16666 10.5007C1.16666 10.9648 1.35104 11.4099 1.67923 11.7381C2.00742 12.0663 2.45254 12.2507 2.91666 12.2507C3.38079 12.2507 3.82591 12.0663 4.1541 11.7381C4.48229 11.4099 4.66666 10.9648 4.66666 10.5007C4.66666 10.0365 4.48229 9.5914 4.1541 9.26321C3.82591 8.93503 3.38079 8.75065 2.91666 8.75065C2.45254 8.75065 2.00742 8.93503 1.67923 9.26321C1.35104 9.5914 1.16666 10.0365 1.16666 10.5007ZM9.33333 10.5007C9.33333 10.9648 9.5177 11.4099 9.84589 11.7381C10.1741 12.0663 10.6192 12.2507 11.0833 12.2507C11.5475 12.2507 11.9926 12.0663 12.3208 11.7381C12.649 11.4099 12.8333 10.9648 12.8333 10.5007C12.8333 10.0365 12.649 9.5914 12.3208 9.26321C11.9926 8.93503 11.5475 8.75065 11.0833 8.75065C10.6192 8.75065 10.1741 8.93503 9.84589 9.26321C9.5177 9.5914 9.33333 10.0365 9.33333 10.5007ZM9.33333 2.91732C9.33333 3.07203 9.39479 3.2204 9.50418 3.3298C9.61358 3.43919 9.76195 3.50065 9.91666 3.50065C10.0714 3.50065 10.2197 3.43919 10.3291 3.3298C10.4385 3.2204 10.5 3.07203 10.5 2.91732C10.5 2.76261 10.4385 2.61424 10.3291 2.50484C10.2197 2.39544 10.0714 2.33398 9.91666 2.33398C9.76195 2.33398 9.61358 2.39544 9.50418 2.50484C9.39479 2.61424 9.33333 2.76261 9.33333 2.91732Z"
            stroke="#2E2E2E" stroke-linecap="round" stroke-linejoin="round" />
    </g>
</svg>
