<svg width="20" height="20" viewBox="0 0 20 20" fill="none" xmlns="http://www.w3.org/2000/svg">
    <g id="icon-set">
        <path id="Vector"
            d="M9.99998 3.33203C9.73624 3.52134 9.52254 3.77201 9.37735 4.06238C9.23217 4.35276 9.15985 4.67412 9.16665 4.9987C9.15985 5.32328 9.23217 5.64463 9.37735 5.93501C9.52254 6.22539 9.73624 6.47606 9.99998 6.66536M13.3333 3.33203C13.0696 3.52134 12.8559 3.77201 12.7107 4.06238C12.5655 4.35276 12.4932 4.67412 12.5 4.9987C12.4932 5.32328 12.5655 5.64463 12.7107 5.93501C12.8559 6.22539 13.0696 6.47606 13.3333 6.66536M6.66665 3.33203C6.4029 3.52134 6.18921 3.77201 6.04402 4.06238C5.89883 4.35276 5.82652 4.67412 5.83331 4.9987C5.82652 5.32328 5.89883 5.64463 6.04402 5.93501C6.18921 6.22539 6.4029 6.47606 6.66665 6.66536M3.33333 9.16536H16.6667C16.8877 9.16536 17.0996 9.25316 17.2559 9.40944C17.4122 9.56572 17.5 9.77768 17.5 9.9987V10.4154C17.5 11.6654 15.4025 15.0595 14.1667 15.832V16.6654C14.1667 16.8864 14.0789 17.0983 13.9226 17.2546C13.7663 17.4109 13.5543 17.4987 13.3333 17.4987H6.66667C6.44565 17.4987 6.23369 17.4109 6.07741 17.2546C5.92113 17.0983 5.83333 16.8864 5.83333 16.6654V15.832C4.4275 14.9537 2.5 11.6654 2.5 10.4154V9.9987C2.5 9.77768 2.5878 9.56572 2.74408 9.40944C2.90036 9.25316 3.11232 9.16536 3.33333 9.16536Z"
            stroke="#16B050" stroke-width="2" stroke-linecap="round" stroke-linejoin="round" />
    </g>
</svg>
