<svg width="17" height="17" viewBox="0 0 17 17" fill="none" xmlns="http://www.w3.org/2000/svg">
<path fill-rule="evenodd" clip-rule="evenodd" d="M9.44444 6.13889H14.1667V4.25H9.44444V6.13889ZM9.44444 12.75H14.1667V10.8611H9.44444V12.75ZM15.1111 17H1.88889C0.85 17 0 16.15 0 15.1111V1.88889C0 0.85 0.85 0 1.88889 0H15.1111C16.15 0 17 0.85 17 1.88889V15.1111C17 16.15 16.15 17 15.1111 17ZM2.83333 7.55556H7.55556V2.83333H2.83333V7.55556ZM3.77778 3.77778H6.61111V6.61111H3.77778V3.77778ZM2.83333 14.1667H7.55556V9.44444H2.83333V14.1667ZM3.77778 10.3889H6.61111V13.2222H3.77778V10.3889Z" fill="#6A13F4"/>
</svg>
