<svg width="8" height="11" viewBox="0 0 8 11" fill="none" xmlns="http://www.w3.org/2000/svg">
<path d="M2.75 1.75C2.75 2.08152 2.8817 2.39946 3.11612 2.63388C3.35054 2.8683 3.66848 3 4 3C4.33152 3 4.64946 2.8683 4.88388 2.63388C5.1183 2.39946 5.25 2.08152 5.25 1.75C5.25 1.41848 5.1183 1.10054 4.88388 0.866117C4.64946 0.631696 4.33152 0.5 4 0.5C3.66848 0.5 3.35054 0.631696 3.11612 0.866117C2.8817 1.10054 2.75 1.41848 2.75 1.75Z" stroke="#1C1C1C" stroke-linecap="round" stroke-linejoin="round"/>
<path d="M4.00001 9.684L6.54751 7.136C6.69241 6.99297 6.80758 6.82269 6.88641 6.63496C6.96524 6.44724 7.00616 6.24578 7.00682 6.04218C7.00748 5.83858 6.96786 5.63686 6.89025 5.44863C6.81264 5.2604 6.69857 5.08938 6.5546 4.94541C6.41063 4.80144 6.23961 4.68737 6.05138 4.60976C5.86315 4.53215 5.66143 4.49253 5.45783 4.49319C5.25423 4.49385 5.05277 4.53477 4.86505 4.6136C4.67732 4.69243 4.50704 4.8076 4.36401 4.9525L4.00001 5.316L3.63601 4.9525C3.49298 4.8076 3.3227 4.69243 3.13498 4.6136C2.94725 4.53477 2.74579 4.49385 2.54219 4.49319C2.33859 4.49253 2.13687 4.53215 1.94864 4.60976C1.76041 4.68737 1.58939 4.80144 1.44542 4.94541C1.30145 5.08938 1.18738 5.2604 1.10977 5.44863C1.03216 5.63686 0.992544 5.83858 0.993203 6.04218C0.993862 6.24578 1.03478 6.44724 1.11361 6.63496C1.19244 6.82269 1.30761 6.99297 1.45251 7.136L4.00001 9.684Z" stroke="#1C1C1C" stroke-linecap="round" stroke-linejoin="round"/>
</svg>
