<svg width="18" height="18" viewBox="0 0 18 18" fill="none" xmlns="http://www.w3.org/2000/svg">
    <g id="icon-set">
        <path id="Vector"
            d="M4.875 5.25H13.125M4.875 12.75H13.125M9 9C7.80653 9 6.66193 9.47411 5.81802 10.318C4.97411 11.1619 4.5 12.3065 4.5 13.5V15C4.5 15.1989 4.57902 15.3897 4.71967 15.5303C4.86032 15.671 5.05109 15.75 5.25 15.75H12.75C12.9489 15.75 13.1397 15.671 13.2803 15.5303C13.421 15.3897 13.5 15.1989 13.5 15V13.5C13.5 12.3065 13.0259 11.1619 12.182 10.318C11.3381 9.47411 10.1935 9 9 9ZM9 9C7.80653 9 6.66193 8.52589 5.81802 7.68198C4.97411 6.83807 4.5 5.69347 4.5 4.5V3C4.5 2.80109 4.57902 2.61032 4.71967 2.46967C4.86032 2.32902 5.05109 2.25 5.25 2.25H12.75C12.9489 2.25 13.1397 2.32902 13.2803 2.46967C13.421 2.61032 13.5 2.80109 13.5 3V4.5C13.5 5.69347 13.0259 6.83807 12.182 7.68198C11.3381 8.52589 10.1935 9 9 9Z"
            stroke="#949494" stroke-linecap="round" stroke-linejoin="round" />
    </g>
</svg>
