<svg width="12" height="12" viewBox="0 0 12 12" fill="none" xmlns="http://www.w3.org/2000/svg">
<path d="M3.66667 11.25V10.6667C3.66667 10.3572 3.78958 10.0605 4.00838 9.84171C4.22717 9.62292 4.52391 9.5 4.83333 9.5H7.16667C7.47609 9.5 7.77283 9.62292 7.99162 9.84171C8.21042 10.0605 8.33333 10.3572 8.33333 10.6667V11.25M8.91667 4.83333H10.0833C10.3928 4.83333 10.6895 4.95625 10.9083 5.17504C11.1271 5.39383 11.25 5.69058 11.25 6V6.58333M0.75 6.58333V6C0.75 5.69058 0.872916 5.39383 1.09171 5.17504C1.3105 4.95625 1.60725 4.83333 1.91667 4.83333H3.08333M4.83333 6.58333C4.83333 6.89275 4.95625 7.1895 5.17504 7.40829C5.39383 7.62708 5.69058 7.75 6 7.75C6.30942 7.75 6.60617 7.62708 6.82496 7.40829C7.04375 7.1895 7.16667 6.89275 7.16667 6.58333C7.16667 6.27391 7.04375 5.97717 6.82496 5.75838C6.60617 5.53958 6.30942 5.41667 6 5.41667C5.69058 5.41667 5.39383 5.53958 5.17504 5.75838C4.95625 5.97717 4.83333 6.27391 4.83333 6.58333ZM7.75 1.91667C7.75 2.22609 7.87292 2.52283 8.09171 2.74162C8.3105 2.96042 8.60725 3.08333 8.91667 3.08333C9.22609 3.08333 9.52283 2.96042 9.74162 2.74162C9.96042 2.52283 10.0833 2.22609 10.0833 1.91667C10.0833 1.60725 9.96042 1.3105 9.74162 1.09171C9.52283 0.872916 9.22609 0.75 8.91667 0.75C8.60725 0.75 8.3105 0.872916 8.09171 1.09171C7.87292 1.3105 7.75 1.60725 7.75 1.91667ZM1.91667 1.91667C1.91667 2.22609 2.03958 2.52283 2.25838 2.74162C2.47717 2.96042 2.77391 3.08333 3.08333 3.08333C3.39275 3.08333 3.6895 2.96042 3.90829 2.74162C4.12708 2.52283 4.25 2.22609 4.25 1.91667C4.25 1.60725 4.12708 1.3105 3.90829 1.09171C3.6895 0.872916 3.39275 0.75 3.08333 0.75C2.77391 0.75 2.47717 0.872916 2.25838 1.09171C2.03958 1.3105 1.91667 1.60725 1.91667 1.91667Z" stroke="#2E2E2E" stroke-width="1.5" stroke-linecap="round" stroke-linejoin="round"/>
</svg>
