<svg width="19" height="18" viewBox="0 0 19 18" fill="none" xmlns="http://www.w3.org/2000/svg">
<path d="M5.88647 5.25H5.13647C4.73865 5.25 4.35712 5.40804 4.07581 5.68934C3.79451 5.97064 3.63647 6.35218 3.63647 6.75V13.5C3.63647 13.8978 3.79451 14.2794 4.07581 14.5607C4.35712 14.842 4.73865 15 5.13647 15H11.8865C12.2843 15 12.6658 14.842 12.9471 14.5607C13.2284 14.2794 13.3865 13.8978 13.3865 13.5V12.75" stroke="black" stroke-width="1.5" stroke-linecap="round" stroke-linejoin="round"/>
<path d="M15.9252 4.93883C16.2206 4.64345 16.3866 4.24282 16.3866 3.82508C16.3866 3.40734 16.2206 3.00672 15.9252 2.71133C15.6298 2.41595 15.2292 2.25 14.8115 2.25C14.3937 2.25 13.9931 2.41595 13.6977 2.71133L7.38647 9.00008V11.2501H9.63647L15.9252 4.93883Z" stroke="black" stroke-width="1.5" stroke-linecap="round" stroke-linejoin="round"/>
<path d="M12.6365 3.75L14.8865 6" stroke="black" stroke-width="1.5" stroke-linecap="round" stroke-linejoin="round"/>
</svg>
