<svg width="19" height="19" viewBox="0 0 19 19" fill="none" xmlns="http://www.w3.org/2000/svg">
<path d="M14 15.5C14.5304 15.5 15.0391 15.7107 15.4142 16.0858C15.7893 16.4609 16 16.9696 16 17.5C16 16.9696 16.2107 16.4609 16.5858 16.0858C16.9609 15.7107 17.4696 15.5 18 15.5C17.4696 15.5 16.9609 15.2893 16.5858 14.9142C16.2107 14.5391 16 14.0304 16 13.5C16 14.0304 15.7893 14.5391 15.4142 14.9142C15.0391 15.2893 14.5304 15.5 14 15.5ZM14 3.5C14.5304 3.5 15.0391 3.71071 15.4142 4.08579C15.7893 4.46086 16 4.96957 16 5.5C16 4.96957 16.2107 4.46086 16.5858 4.08579C16.9609 3.71071 17.4696 3.5 18 3.5C17.4696 3.5 16.9609 3.28929 16.5858 2.91421C16.2107 2.53914 16 2.03043 16 1.5C16 2.03043 15.7893 2.53914 15.4142 2.91421C15.0391 3.28929 14.5304 3.5 14 3.5ZM7 15.5C7 13.9087 7.63214 12.3826 8.75736 11.2574C9.88258 10.1321 11.4087 9.5 13 9.5C11.4087 9.5 9.88258 8.86786 8.75736 7.74264C7.63214 6.61742 7 5.0913 7 3.5C7 5.0913 6.36786 6.61742 5.24264 7.74264C4.11742 8.86786 2.5913 9.5 1 9.5C2.5913 9.5 4.11742 10.1321 5.24264 11.2574C6.36786 12.3826 7 13.9087 7 15.5Z" stroke="#16B050" stroke-width="1.5" stroke-linecap="round" stroke-linejoin="round"/>
</svg>
