<svg width="21" height="21" viewBox="0 0 21 21" fill="none" xmlns="http://www.w3.org/2000/svg">
    <path
        d="M7.50016 15.1667V16C7.50016 16.663 7.76355 17.2989 8.2324 17.7678C8.70124 18.2366 9.33712 18.5 10.0002 18.5C10.6632 18.5 11.2991 18.2366 11.7679 17.7678C12.2368 17.2989 12.5002 16.663 12.5002 16V15.1667M8.3335 5.16667C8.3335 4.72464 8.50909 4.30072 8.82165 3.98816C9.13421 3.67559 9.55814 3.5 10.0002 3.5C10.4422 3.5 10.8661 3.67559 11.1787 3.98816C11.4912 4.30072 11.6668 4.72464 11.6668 5.16667C12.6238 5.61919 13.4397 6.32361 14.0269 7.20442C14.6141 8.08523 14.9505 9.10923 15.0002 10.1667V12.6667C15.0629 13.1848 15.2464 13.6809 15.5358 14.1151C15.8253 14.5493 16.2127 14.9095 16.6668 15.1667H3.3335C3.78761 14.9095 4.175 14.5493 4.46449 14.1151C4.75397 13.6809 4.93745 13.1848 5.00016 12.6667V10.1667C5.0498 9.10923 5.38625 8.08523 5.97345 7.20442C6.56066 6.32361 7.37649 5.61919 8.3335 5.16667Z"
        stroke="#1C1C1C" stroke-width="1.5" stroke-linecap="round" stroke-linejoin="round" />
    <circle cx="15" cy="6" r="4.75" fill="#F43F5E" stroke="white" stroke-width="1.5" />
</svg>
