<svg width="24" height="25" viewBox="0 0 24 25" fill="none" xmlns="http://www.w3.org/2000/svg">
    <g id="icon-set">
        <path id="Vector"
            d="M9 10.5007C9 10.6333 9.05268 10.7605 9.14645 10.8543C9.24021 10.9481 9.36739 11.0007 9.5 11.0007C9.63261 11.0007 9.75979 10.9481 9.85355 10.8543C9.94732 10.7605 10 10.6333 10 10.5007V9.50073C10 9.36812 9.94732 9.24095 9.85355 9.14718C9.75979 9.05341 9.63261 9.00073 9.5 9.00073C9.36739 9.00073 9.24021 9.05341 9.14645 9.14718C9.05268 9.24095 9 9.36812 9 9.50073V10.5007ZM9 10.5007C9 11.8268 9.52678 13.0986 10.4645 14.0363C11.4021 14.9739 12.6739 15.5007 14 15.5007M14 15.5007H15C15.1326 15.5007 15.2598 15.4481 15.3536 15.3543C15.4473 15.2605 15.5 15.1333 15.5 15.0007C15.5 14.8681 15.4473 14.7409 15.3536 14.6472C15.2598 14.5534 15.1326 14.5007 15 14.5007H14C13.8674 14.5007 13.7402 14.5534 13.6464 14.6472C13.5527 14.7409 13.5 14.8681 13.5 15.0007C13.5 15.1333 13.5527 15.2605 13.6464 15.3543C13.7402 15.4481 13.8674 15.5007 14 15.5007ZM3 21.5007L4.65 17.7007C3.38766 15.9088 2.82267 13.7177 3.06104 11.5388C3.29942 9.35988 4.32479 7.34284 5.94471 5.86622C7.56463 4.3896 9.66775 3.55492 11.8594 3.5188C14.051 3.48269 16.1805 4.24763 17.8482 5.67007C19.5159 7.09252 20.6071 9.07468 20.9172 11.2446C21.2272 13.4145 20.7347 15.6229 19.5321 17.4555C18.3295 19.288 16.4994 20.6187 14.3854 21.1978C12.2713 21.7769 10.0186 21.5646 8.05 20.6007L3 21.5007Z"
            stroke="#1C1C1C" stroke-width="1.5" stroke-linecap="round" stroke-linejoin="round" />
    </g>
</svg>
